<svg width="100%" height="100%" viewBox="0 0 24 24" version="1.1" xmlns="http://www.w3.org/2000/svg" xmlns:xlink="http://www.w3.org/1999/xlink" xml:space="preserve" xmlns:serif="http://www.serif.com/" style="fill-rule:evenodd;clip-rule:evenodd;stroke-linejoin:round;stroke-miterlimit:2;">
    <path d="M18,19L18,21L20,21L20,19L22,19L22,17L20,17L20,15L18,15L18,17L16,17L16,19L18,19ZM8.554,5.076C8.413,5.018 8.242,5 7.343,5L7,5C6.029,5 5.401,5.002 4.939,5.065C4.505,5.123 4.369,5.217 4.293,5.293C4.217,5.369 4.123,5.505 4.064,5.939C4.002,6.401 4,7.029 4,8L4,14C4,14.971 4.002,15.599 4.064,16.062C4.123,16.495 4.217,16.631 4.293,16.707C4.369,16.783 4.505,16.878 4.939,16.936C5.401,16.998 6.029,17 7,17L14,17L14,19L6.934,19C6.048,19 5.284,19 4.672,18.918C4.017,18.83 3.388,18.631 2.879,18.122C2.369,17.612 2.17,16.984 2.082,16.328C2,15.716 2,14.953 2,14.066L2,7.934C2,7.048 2,6.284 2.082,5.672C2.17,5.017 2.369,4.389 2.879,3.879C3.388,3.369 4.017,3.171 4.672,3.082C5.284,3 6.048,3 6.934,3L7.482,3C8.161,2.999 8.763,2.998 9.32,3.229C9.876,3.459 10.301,3.886 10.781,4.366L11.536,5.122C12.171,5.757 12.305,5.866 12.446,5.924C12.587,5.983 12.758,6 13.657,6L15.066,6C15.952,6 16.716,6 17.328,6.082C17.983,6.171 18.612,6.369 19.121,6.879C19.631,7.389 19.83,8.017 19.918,8.672C20,9.284 20,10.048 20,10.934L20,13L18,13L18,11C18,10.029 17.998,9.401 17.936,8.939C17.877,8.505 17.783,8.369 17.707,8.293C17.631,8.217 17.495,8.123 17.061,8.065C16.599,8.002 15.971,8 15,8L13.518,8C12.839,8.001 12.237,8.002 11.68,7.772C11.124,7.541 10.699,7.115 10.219,6.634L9.465,5.879C8.829,5.243 8.695,5.135 8.554,5.076Z" fill="currentColor"/>
</svg>
