<svg width="100%" height="100%" viewBox="0 0 17 18" version="1.1" xmlns="http://www.w3.org/2000/svg" xmlns:xlink="http://www.w3.org/1999/xlink" xml:space="preserve" xmlns:serif="http://www.serif.com/" style="fill-rule:evenodd;clip-rule:evenodd;stroke-linejoin:round;stroke-miterlimit:2;">
    <path d="M13.853,2.006C13.296,2.036 12.549,2.183 11.412,2.411L9.412,2.811C8.617,2.97 8.111,3.073 7.741,3.195C7.398,3.309 7.288,3.404 7.227,3.479C7.165,3.554 7.093,3.68 7.049,4.039C7.002,4.426 7,4.942 7,5.752L7,6.253L14.999,4.654C14.995,3.873 14.98,3.312 14.919,2.879C14.844,2.355 14.723,2.212 14.634,2.14C14.545,2.067 14.382,1.976 13.853,2.006ZM15,6.693L7,8.293L7,14.424C7,14.447 7,14.47 7,14.493C7,14.812 7,15.089 6.956,15.346C6.776,16.384 6.065,17.252 5.082,17.632C4.839,17.726 4.567,17.78 4.254,17.842C4.232,17.847 4.209,17.851 4.186,17.856L3.89,17.915C3.873,17.918 3.856,17.922 3.84,17.925C3.616,17.97 3.426,18.008 3.257,18.023C1.636,18.162 0.2,16.984 0.019,15.368C-0,15.199 -0,15.005 -0,14.777L-0,14.683C-0,14.491 -0,14.326 0.015,14.176C0.156,12.754 1.281,11.629 2.703,11.488C2.853,11.473 3.018,11.473 3.21,11.473L5,11.473L5,5.695C5,4.959 5,4.318 5.064,3.796C5.133,3.232 5.288,2.689 5.68,2.211C6.072,1.733 6.574,1.475 7.113,1.296C7.613,1.131 8.242,1.005 8.963,0.861L11.092,0.435C12.137,0.226 13.025,0.048 13.742,0.009C14.503,-0.033 15.259,0.066 15.902,0.593C16.545,1.12 16.791,1.842 16.898,2.596C17,3.307 17,4.213 17,5.279L17,12.493C17,12.812 17,13.089 16.956,13.346C16.776,14.384 16.065,15.252 15.082,15.632C14.839,15.726 14.567,15.78 14.254,15.842C14.232,15.847 14.209,15.851 14.186,15.856L13.89,15.915C13.873,15.918 13.856,15.922 13.84,15.925C13.616,15.97 13.426,16.008 13.257,16.023C11.636,16.162 10.2,14.984 10.019,13.368C10,13.199 10,13.005 10,12.777L10,12.683C10,12.491 10,12.326 10.015,12.176C10.156,10.754 11.281,9.629 12.703,9.488C12.853,9.473 13.018,9.473 13.21,9.473L15,9.473L15,6.693ZM15,11.473L13.253,11.473C12.994,11.473 12.938,11.474 12.901,11.478C12.427,11.525 12.052,11.9 12.005,12.374C12.001,12.411 12,12.467 12,12.726C12,13.035 12.002,13.104 12.006,13.145C12.067,13.684 12.546,14.076 13.086,14.03C13.127,14.026 13.195,14.014 13.498,13.954L13.794,13.895C14.213,13.811 14.3,13.79 14.361,13.766C14.688,13.64 14.925,13.35 14.985,13.004C14.996,12.941 15,12.851 15,12.424L15,11.473ZM5,13.473L3.252,13.473C2.994,13.473 2.938,13.474 2.901,13.478C2.427,13.525 2.052,13.9 2.005,14.374C2.001,14.411 2,14.467 2,14.726C2,15.035 2.002,15.104 2.006,15.145C2.067,15.684 2.545,16.076 3.086,16.03C3.127,16.026 3.195,16.014 3.498,15.954L3.794,15.895C4.213,15.811 4.3,15.79 4.361,15.766C4.688,15.64 4.925,15.35 4.985,15.004C4.996,14.941 5,14.851 5,14.424L5,13.473Z" fill="currentColor"/>
</svg>
