<svg width="100%" height="100%" viewBox="0 0 20 20" fill="none" xmlns="http://www.w3.org/2000/svg">
<path fill-rule="evenodd" clip-rule="evenodd" d="M5.41667 0.75C5.96896 0.75 6.41667 1.19772 6.41667 1.75L6.41667 3.5H13.5833L13.5833 1.75C13.5833 1.19772 14.0311 0.750001 14.5833 0.75C15.1356 0.749999 15.5833 1.19771 15.5833 1.75L15.5833 3.50554C15.9293 3.51213 16.2431 3.52653 16.5219 3.55796C17.0693 3.61967 17.6039 3.75745 18.0763 4.11994C18.1792 4.19888 18.2767 4.28433 18.3683 4.3757C18.3693 4.37669 18.3703 4.37768 18.3713 4.37868C18.4638 4.47117 18.5503 4.56972 18.6301 4.67372C18.9926 5.14612 19.1303 5.6807 19.192 6.22813C19.2501 6.74281 19.25 7.37692 19.25 8.11242V8.2973C19.25 8.3426 19.25 8.38823 19.25 8.43419V14.3158C19.2501 15.2023 19.2501 15.9661 19.1679 16.5778C19.0797 17.2333 18.881 17.8617 18.3713 18.3713C17.8617 18.881 17.2333 19.0797 16.5778 19.1679C15.9661 19.2501 15.2023 19.2501 14.3158 19.25H5.6842C4.7977 19.2501 4.03388 19.2501 3.42221 19.1679C2.7667 19.0797 2.13835 18.881 1.62868 18.3713C1.11902 17.8617 0.920277 17.2333 0.832145 16.5778C0.74991 15.9661 0.749953 15.2023 0.750002 14.3158V8.43417C0.75 8.39077 0.749998 8.34767 0.750005 8.30487L0.750003 8.11244C0.749969 7.37693 0.749939 6.74281 0.807961 6.22813C0.869676 5.6807 1.00746 5.14612 1.36994 4.67372C1.44889 4.57084 1.53433 4.4733 1.6257 4.38167C1.6267 4.38067 1.62769 4.37967 1.62868 4.37868C1.62968 4.37768 1.63068 4.37669 1.63167 4.3757C1.7233 4.28433 1.82084 4.19888 1.92372 4.11994C2.39613 3.75745 2.9307 3.61967 3.47814 3.55796C3.7569 3.52653 4.0707 3.51213 4.41667 3.50554L4.41667 1.75C4.41667 1.19771 4.86439 0.75 5.41667 0.75ZM2.75 9.16667V14.25C2.75 15.2211 2.75213 15.8488 2.81431 16.3113C2.87263 16.745 2.96677 16.881 3.0429 16.9571C3.11902 17.0332 3.25497 17.1274 3.68871 17.1857C4.15122 17.2479 4.77893 17.25 5.75 17.25H14.25C15.2211 17.25 15.8488 17.2479 16.3113 17.1857C16.745 17.1274 16.881 17.0332 16.9571 16.9571C17.0332 16.881 17.1274 16.745 17.1857 16.3113C17.2479 15.8488 17.25 15.2211 17.25 14.25V9.16667H2.75ZM16.9571 5.79289C17.0332 5.86902 17.1274 6.00496 17.1857 6.4387C17.2133 6.64372 17.229 6.8812 17.238 7.16667H2.76198C2.77098 6.8812 2.78675 6.64372 2.81431 6.4387C2.87263 6.00496 2.96677 5.86902 3.0429 5.79289M14.25 5.5C15.2211 5.5 15.8488 5.50212 16.3113 5.56431C16.745 5.62262 16.881 5.71677 16.9571 5.79289M3.04469 5.79111C3.12116 5.7153 3.25836 5.62217 3.68871 5.56431ZM3.68871 5.56431C4.15121 5.50212 4.77893 5.5 5.75 5.5ZM5.75 5.5H14.25Z" fill="currentColor"/>
</svg>
