<svg width="100%" height="100%" viewBox="0 0 24 24" version="1.1" xmlns="http://www.w3.org/2000/svg" xmlns:xlink="http://www.w3.org/1999/xlink" xml:space="preserve" xmlns:serif="http://www.serif.com/" style="fill-rule:evenodd;clip-rule:evenodd;stroke-linejoin:round;stroke-miterlimit:2;">
    <path d="M6.181,4L16.819,4C17.75,4 18.552,4 19.194,4.086C19.882,4.179 20.543,4.387 21.077,4.923C21.613,5.457 21.821,6.118 21.914,6.806C22,7.448 22,8.25 22,9.181L22,14.569C22,15.5 22,16.302 21.914,16.944C21.821,17.632 21.613,18.293 21.077,18.827C20.543,19.363 19.882,19.572 19.194,19.664C18.552,19.75 17.75,19.75 16.819,19.75L6.181,19.75C5.25,19.75 4.448,19.75 3.806,19.664C3.118,19.572 2.457,19.363 1.923,18.827C1.387,18.293 1.179,17.632 1.086,16.944C1,16.302 1,15.5 1,14.569L1,9.181C1,8.25 1,7.448 1.086,6.806C1.179,6.118 1.387,5.457 1.923,4.923C2.457,4.387 3.118,4.179 3.806,4.086C4.448,4 5.25,4 6.181,4ZM19.9,11.35L3.1,11.35L3.1,14.5C3.1,15.52 3.102,16.179 3.167,16.664C3.229,17.12 3.328,17.263 3.408,17.342C3.487,17.422 3.63,17.521 4.086,17.583C4.571,17.648 5.23,17.65 6.25,17.65L16.75,17.65C17.77,17.65 18.429,17.648 18.914,17.583C19.37,17.521 19.513,17.422 19.592,17.342C19.672,17.263 19.771,17.12 19.833,16.664C19.898,16.179 19.9,15.52 19.9,14.5L19.9,11.35ZM5.2,14.5C5.2,13.92 5.67,13.45 6.25,13.45L6.261,13.45C6.84,13.45 7.311,13.92 7.311,14.5C7.311,15.08 6.84,15.55 6.261,15.55L6.25,15.55C5.67,15.55 5.2,15.08 5.2,14.5ZM19.9,9.25C19.9,8.23 19.898,7.571 19.833,7.086C19.771,6.63 19.672,6.487 19.592,6.408C19.513,6.328 19.37,6.229 18.914,6.167C18.429,6.102 17.77,6.1 16.75,6.1L6.25,6.1C5.23,6.1 4.571,6.102 4.086,6.167C3.63,6.229 3.487,6.328 3.408,6.408C3.328,6.487 3.229,6.63 3.167,7.086C3.102,7.571 3.1,8.23 3.1,9.25L19.9,9.25Z" fill="currentColor"/>
</svg>
