<svg width="100%" height="100%" viewBox="0 0 18 18" version="1.1" xmlns="http://www.w3.org/2000/svg" xmlns:xlink="http://www.w3.org/1999/xlink" xml:space="preserve" xmlns:serif="http://www.serif.com/" style="fill-rule:evenodd;clip-rule:evenodd;stroke-linejoin:round;stroke-miterlimit:2;">
    <path d="M1.391,1.391C1.911,0.87 2.755,0.87 3.276,1.391L9,7.114L14.724,1.391C15.245,0.87 16.089,0.87 16.61,1.391C17.13,1.911 17.13,2.755 16.61,3.276L10.886,9L16.61,14.724C17.13,15.245 17.13,16.089 16.61,16.61C16.089,17.13 15.245,17.13 14.724,16.61L9,10.886L3.276,16.61C2.755,17.13 1.911,17.13 1.391,16.61C0.87,16.089 0.87,15.245 1.391,14.724L7.114,9L1.391,3.276C0.87,2.755 0.87,1.911 1.391,1.391Z" fill="currentColor"/>
</svg>
