<svg width="100%" height="100%" viewBox="0 0 27 26" fill="none" xmlns="http://www.w3.org/2000/svg">
<path fill-rule="evenodd" clip-rule="evenodd" d="M4.93417 2.43992e-06C4.95604 3.63201e-06 4.97799 4.82411e-06 5 4.82411e-06L12.6908 2.43992e-06C13.5773 -4.73896e-05 14.3411 -9.01893e-05 14.9528 0.0821453C15.6083 0.170277 16.2366 0.369022 16.7463 0.878684C17.256 1.38835 17.4547 2.0167 17.5428 2.67221C17.6251 3.28387 17.625 4.04767 17.625 4.93414L17.625 5.5H15.625V5.00001C15.625 4.02893 15.6229 3.40122 15.5607 2.93871C15.5024 2.50497 15.4082 2.36902 15.3321 2.2929C15.256 2.21677 15.12 2.12263 14.6863 2.06431C14.2238 2.00213 13.5961 2 12.625 2H5C4.02893 2 3.40122 2.00213 2.93871 2.06431C2.50497 2.12263 2.36902 2.21677 2.2929 2.2929C2.21677 2.36902 2.12263 2.50497 2.06431 2.93871C2.00213 3.40121 2 4.02892 2 5V12C2 12.9711 2.00213 13.5988 2.06431 14.0613C2.12263 14.495 2.21677 14.631 2.2929 14.7071C2.36902 14.7832 2.50497 14.8774 2.93871 14.9357C3.40121 14.9979 4.02893 15 5 15H5.6875V17L4.93417 17C4.04769 17 3.28387 17.0001 2.67221 16.9179C2.0167 16.8297 1.38835 16.631 0.878684 16.1213C0.369022 15.6116 0.170277 14.9833 0.0821453 14.3278C-9.01893e-05 13.7161 -4.73896e-05 12.9523 2.43992e-06 12.0658L4.82411e-06 5C4.82411e-06 4.97798 3.63201e-06 4.95604 2.43992e-06 4.93417C-4.73896e-05 4.04769 -9.01893e-05 3.28387 0.0821454 2.67221C0.170277 2.0167 0.369022 1.38835 0.878684 0.878684C1.38835 0.369022 2.0167 0.170277 2.67221 0.0821453C3.28387 -9.01893e-05 4.04769 -4.73896e-05 4.93417 2.43992e-06Z" fill="currentColor"/>
<path fill-rule="evenodd" clip-rule="evenodd" d="M14.3092 8.99999C14.3311 8.99999 14.353 8.99999 14.375 8.99999L22.0658 8.99999C22.9523 8.99994 23.7161 8.9999 24.3278 9.08213C24.9833 9.17026 25.6117 9.36901 26.1213 9.87867C26.631 10.3883 26.8297 11.0167 26.9179 11.6722C27.0001 12.2839 27.0001 13.0477 27 13.9342V21.0658C27.0001 21.9523 27.0001 22.7161 26.9179 23.3278C26.8297 23.9833 26.631 24.6117 26.1213 25.1213C25.6117 25.631 24.9833 25.8297 24.3278 25.9179C23.7161 26.0001 22.9523 26.0001 22.0658 26H14.3092C13.4227 26.0001 12.6589 26.0001 12.0472 25.9179C11.3917 25.8297 10.7634 25.631 10.2537 25.1213C9.74404 24.6117 9.54529 23.9833 9.45716 23.3278C9.37493 22.7161 9.37497 21.9523 9.37502 21.0658L9.37502 14C9.37502 13.978 9.37502 13.956 9.37502 13.9342C9.37497 13.0477 9.37493 12.2839 9.45716 11.6722C9.54529 11.0167 9.74404 10.3883 10.2537 9.87867C10.7634 9.36901 11.3917 9.17026 12.0472 9.08213C12.6589 8.9999 13.4227 8.99994 14.3092 8.99999ZM12.3137 11.0643C11.88 11.1226 11.744 11.2168 11.6679 11.2929C11.5918 11.369 11.4976 11.505 11.4393 11.9387C11.3771 12.4012 11.375 13.0289 11.375 14V21C11.375 21.9711 11.3771 22.5988 11.4393 23.0613C11.4976 23.495 11.5918 23.631 11.6679 23.7071C11.744 23.7832 11.88 23.8774 12.3137 23.9357C12.7762 23.9979 13.4039 24 14.375 24H22C22.9711 24 23.5988 23.9979 24.0613 23.9357C24.495 23.8774 24.631 23.7832 24.7071 23.7071C24.7832 23.631 24.8774 23.495 24.9357 23.0613C24.9979 22.5988 25 21.9711 25 21V14C25 13.0289 24.9979 12.4012 24.9357 11.9387C24.8774 11.505 24.7832 11.369 24.7071 11.2929C24.631 11.2168 24.495 11.1226 24.0613 11.0643C23.5988 11.0021 22.9711 11 22 11H14.375C13.4039 11 12.7762 11.0021 12.3137 11.0643Z" fill="currentColor"/>
</svg>
