<svg width="100%" height="100%" viewBox="0 0 20 22" fill="none" xmlns="http://www.w3.org/2000/svg">
<path fill-rule="evenodd" clip-rule="evenodd" d="M9.99995 0C10.5522 5.96046e-08 11 0.447715 11 1L11 10.1694L15.6253 6.46913C16.0565 6.12412 16.6858 6.19404 17.0308 6.62531C17.3758 7.05657 17.3059 7.68586 16.8746 8.03087L9.99995 13.5306L3.12526 8.03087C2.694 7.68586 2.62407 7.05657 2.96908 6.6253C3.31409 6.19404 3.94339 6.12412 4.37465 6.46913L8.99995 10.1694L8.99995 1C8.99995 0.447715 9.44767 0 9.99995 0ZM18.7106 13.5487C19.2441 13.6917 19.5607 14.24 19.4177 14.7735C18.8622 16.8467 17.6382 18.6786 15.9354 19.9852C14.2326 21.2918 12.1463 22 9.99995 22C7.85364 22 5.76731 21.2918 4.06453 19.9852C2.36175 18.6786 1.13768 16.8467 0.582174 14.7735C0.439232 14.24 0.755815 13.6917 1.28928 13.5487C1.82275 13.4058 2.37108 13.7224 2.51403 14.2558C2.95558 15.9038 3.92856 17.3599 5.28205 18.3985C6.63554 19.4371 8.29391 20 9.99995 20C11.706 20 13.3644 19.4371 14.7179 18.3985C16.0713 17.3599 17.0443 15.9038 17.4859 14.2558C17.6288 13.7224 18.1772 13.4058 18.7106 13.5487Z" fill="currentColor"/>
</svg>
