<svg width="100%" height="100%" viewBox="0 0 23 23" fill="none" xmlns="http://www.w3.org/2000/svg">
<path fill-rule="evenodd" clip-rule="evenodd" d="M4.0584 19.5479C3.69736 19.6381 3.51685 19.6832 3.41676 19.5832C3.31667 19.4831 3.3618 19.3026 3.45206 18.9415L4.36559 15.2874C4.43235 15.0203 4.46573 14.8868 4.53271 14.7685C4.59968 14.6502 4.69701 14.5529 4.89166 14.3583L14.3357 4.91418C15.0024 4.24752 15.3357 3.91418 15.7499 3.91418C16.1642 3.91418 16.4975 4.24752 17.1642 4.91418L18.0857 5.83576C18.7524 6.50243 19.0857 6.83576 19.0857 7.24997C19.0857 7.66418 18.7524 7.99752 18.0857 8.66418L8.64166 18.1083C8.44701 18.3029 8.34968 18.4002 8.23139 18.4672C8.1131 18.5342 7.97957 18.5676 7.71252 18.6343L4.0584 19.5479ZM9.70948 21.0778C9.20238 21.3649 8.65541 21.4939 8.47944 21.5353C8.46297 21.5392 8.44975 21.5423 8.44012 21.5448L4.786 22.4583C4.77885 22.4601 4.76937 22.4625 4.75777 22.4655C4.63527 22.4969 4.27661 22.5889 3.9318 22.6226C3.51726 22.6632 2.30169 22.7107 1.29545 21.7045C0.289217 20.6982 0.336727 19.4827 0.37728 19.0681C0.411008 18.7233 0.502999 18.3647 0.534427 18.2422C0.537405 18.2306 0.539839 18.2211 0.541629 18.2139L1.45516 14.5598C1.45757 14.5502 1.46068 14.5369 1.46456 14.5205C1.50605 14.3445 1.63499 13.7975 1.92211 13.2904C2.20922 12.7833 2.61192 12.3913 2.74146 12.2652C2.75359 12.2534 2.76332 12.244 2.77034 12.2369L12.2144 2.79286C12.2348 2.77247 12.256 2.75125 12.2779 2.72929C12.5495 2.45699 12.9327 2.07289 13.3178 1.77912C13.8031 1.40885 14.6232 0.914185 15.7499 0.914185C16.8767 0.914185 17.6968 1.40885 18.1821 1.77912C18.5672 2.07289 18.9503 2.45699 19.222 2.72929C19.2439 2.75125 19.2651 2.77247 19.2855 2.79286L20.2071 3.71444C20.2274 3.73483 20.2487 3.75601 20.2706 3.77791C20.5429 4.04958 20.927 4.43276 21.2208 4.81779C21.5911 5.30309 22.0857 6.12319 22.0857 7.24997C22.0857 8.37676 21.5911 9.19686 21.2208 9.68215C20.927 10.0672 20.5429 10.4504 20.2706 10.7221C20.2487 10.744 20.2274 10.7651 20.2071 10.7855L10.763 20.2296C10.756 20.2366 10.7465 20.2463 10.7347 20.2585C10.6086 20.388 10.2166 20.7907 9.70948 21.0778ZM6.32323 19.8296L6.32372 19.8273C6.3219 19.8363 6.32146 19.8375 6.32323 19.8296Z" fill="currentColor"/>
<path d="M12.6249 5.37497L16.3749 2.87497L20.1249 6.62497L17.6249 10.375L12.6249 5.37497Z" fill="currentColor"/>
</svg>
