<svg width="100%" height="100%" viewBox="0 0 26 20" version="1.1" xmlns="http://www.w3.org/2000/svg" xmlns:xlink="http://www.w3.org/1999/xlink" xml:space="preserve" xmlns:serif="http://www.serif.com/" style="fill-rule:evenodd;clip-rule:evenodd;stroke-linejoin:round;stroke-miterlimit:2;">
    <path d="M0,16C0,17.886 0,18.828 0.571,19.414C1.142,20 2.062,20 3.9,20L22.1,20C23.938,20 24.858,20 25.429,19.414C26,18.828 26,17.886 26,16L26,4C26,2.114 26,1.172 25.429,0.586C24.858,0 23.938,0 22.1,0L3.9,0C2.062,0 1.142,0 0.571,0.586C0,1.172 0,2.114 0,4L0,16ZM24.05,4.882L24.05,4C24.05,3.001 24.046,2.452 23.996,2.072C23.995,2.067 23.995,2.062 23.994,2.057C23.989,2.057 23.985,2.056 23.98,2.055C23.609,2.004 23.074,2 22.1,2L3.9,2C2.926,2 2.391,2.004 2.02,2.055C2.015,2.056 2.011,2.057 2.006,2.057C2.005,2.062 2.005,2.067 2.004,2.072C1.954,2.452 1.95,3.001 1.95,4L1.95,4.882L12.564,10.325C12.838,10.466 13.162,10.466 13.436,10.325L24.05,4.882ZM1.95,7.118L1.95,16C1.95,16.999 1.954,17.548 2.004,17.928C2.005,17.933 2.005,17.938 2.006,17.943C2.011,17.943 2.015,17.944 2.02,17.945C2.391,17.996 2.926,18 3.9,18L22.1,18C23.074,18 23.609,17.996 23.98,17.945C23.985,17.944 23.989,17.943 23.994,17.943C23.995,17.938 23.995,17.933 23.996,17.928C24.046,17.548 24.05,16.999 24.05,16L24.05,7.118L14.308,12.114C13.485,12.536 12.515,12.536 11.692,12.114L1.95,7.118ZM23.956,18.138C23.956,18.138 23.956,18.138 23.956,18.136L23.956,18.138ZM2.044,18.138C2.044,18.138 2.044,18.138 2.044,18.136L2.044,18.138ZM1.815,2.097C1.815,2.097 1.816,2.097 1.817,2.096L1.815,2.097ZM24.185,2.097C24.185,2.097 24.184,2.097 24.183,2.096L24.185,2.097ZM23.956,1.864C23.956,1.863 23.956,1.862 23.956,1.862L23.956,1.864Z" fill="currentColor"/>
</svg>
