<svg width="100%" height="100%" viewBox="0 0 20 14" version="1.1" xmlns="http://www.w3.org/2000/svg" xmlns:xlink="http://www.w3.org/1999/xlink" xml:space="preserve" xmlns:serif="http://www.serif.com/" style="fill-rule:evenodd;clip-rule:evenodd;stroke-linejoin:round;stroke-miterlimit:2;">
    <path d="M4.362,2.009C5.9,0.927 7.84,0 10,0C12.159,0 14.1,0.927 15.638,2.009C17.185,3.096 18.413,4.4 19.171,5.299C19.195,5.327 19.22,5.357 19.246,5.387C19.567,5.762 20,6.27 20,7C20,7.73 19.567,8.238 19.246,8.613C19.22,8.643 19.195,8.673 19.171,8.701C18.413,9.6 17.185,10.904 15.638,11.991C14.1,13.073 12.159,14 10,14C7.84,14 5.9,13.073 4.362,11.991C2.815,10.904 1.587,9.6 0.829,8.701C0.805,8.673 0.78,8.643 0.754,8.613C0.433,8.238 0,7.73 0,7C0,6.27 0.433,5.762 0.754,5.387C0.78,5.357 0.805,5.327 0.829,5.299C1.587,4.4 2.815,3.096 4.362,2.009ZM5.557,3.632C4.207,4.581 3.106,5.744 2.409,6.57C2.307,6.691 2.231,6.782 2.168,6.861C2.118,6.925 2.086,6.969 2.065,7C2.086,7.031 2.118,7.075 2.168,7.139C2.231,7.218 2.307,7.309 2.409,7.43C3.106,8.256 4.207,9.419 5.557,10.368C6.915,11.322 8.438,12 10,12C11.562,12 13.085,11.322 14.443,10.368C15.793,9.419 16.894,8.256 17.591,7.43C17.693,7.309 17.769,7.218 17.832,7.139C17.882,7.075 17.914,7.031 17.935,7C17.914,6.969 17.882,6.925 17.832,6.861C17.769,6.782 17.693,6.691 17.591,6.57C16.894,5.744 15.793,4.581 14.443,3.632C13.085,2.678 11.562,2 10,2C8.438,2 6.915,2.678 5.557,3.632ZM10,11C12.261,11 14.094,9.209 14.094,7C14.094,4.791 12.261,3 10,3C7.739,3 5.906,4.791 5.906,7C5.906,9.209 7.739,11 10,11ZM10,9C11.131,9 12.047,8.105 12.047,7C12.047,5.895 11.131,5 10,5C8.869,5 7.953,5.895 7.953,7C7.953,8.105 8.869,9 10,9Z" fill="currentColor"/>
</svg>
