<svg width="100%" height="100%" viewBox="0 0 24 24" version="1.1" xmlns="http://www.w3.org/2000/svg" xmlns:xlink="http://www.w3.org/1999/xlink" xml:space="preserve" xmlns:serif="http://www.serif.com/" style="fill-rule:evenodd;clip-rule:evenodd;stroke-linejoin:round;stroke-miterlimit:2;">
    <path d="M18.868,6.283C17.384,4.334 14.406,4.661 13.363,6.887C12.816,8.055 11.184,8.055 10.637,6.887C9.594,4.661 6.616,4.334 5.132,6.283L4.829,6.682C3.524,8.395 3.713,10.838 5.263,12.322L12,18.771L18.737,12.322C20.287,10.838 20.476,8.395 19.171,6.682L18.868,6.283ZM12,5.301C13.94,2.4 18.211,2.158 20.418,5.057L20.722,5.456C22.647,7.984 22.369,11.589 20.08,13.78L13.258,20.311C13.251,20.317 13.244,20.324 13.238,20.33C13.138,20.425 13.018,20.54 12.903,20.631C12.766,20.738 12.562,20.873 12.283,20.929C12.096,20.966 11.904,20.966 11.717,20.929C11.438,20.873 11.234,20.738 11.097,20.631C10.982,20.54 10.862,20.425 10.762,20.33C10.756,20.324 10.749,20.317 10.743,20.311L3.92,13.78C1.631,11.589 1.353,7.984 3.278,5.456L3.582,5.057C5.789,2.158 10.06,2.4 12,5.301Z" fill="currentColor"/>
</svg>
