<svg width="100%" height="100%" viewBox="0 0 18 18" fill="none" xmlns="http://www.w3.org/2000/svg">
<path fill-rule="evenodd" clip-rule="evenodd" d="M4 3C2.89543 3 2 3.89543 2 5C2 6.10457 2.89543 7 4 7C5.10457 7 6 6.10457 6 5C6 3.89543 5.10457 3 4 3ZM3.57628e-07 5C4.17233e-07 2.79086 1.79086 1 4 1C5.86658 1 7.43455 2.27853 7.87594 4.00762C7.91658 4.00259 7.95799 4 8 4L17 4C17.5523 4 18 4.44772 18 5C18 5.55228 17.5523 6 17 6L8 6C7.95799 6 7.91658 5.99741 7.87594 5.99238C7.43455 7.72147 5.86658 9 4 9C1.79086 9 2.38419e-07 7.20914 3.57628e-07 5ZM14 11C12.8954 11 12 11.8954 12 13C12 14.1046 12.8954 15 14 15C15.1046 15 16 14.1046 16 13C16 11.8954 15.1046 11 14 11ZM10.126 12C10.5701 10.2748 12.1362 9 14 9C16.2091 9 18 10.7909 18 13C18 15.2091 16.2091 17 14 17C12.1362 17 10.5701 15.7252 10.126 14L1 14C0.447715 14 5.96046e-08 13.5523 0 13C0 12.4477 0.447715 12 1 12L10.126 12Z" fill="currentColor"/>
</svg>
