<svg width="100%" height="100%" viewBox="0 0 18 18" fill="none" xmlns="http://www.w3.org/2000/svg">
<path fill-rule="evenodd" clip-rule="evenodd" d="M0 0H7V2H3.41421L6.70711 5.29289C7.09763 5.68342 7.09763 6.31658 6.70711 6.70711C6.31658 7.09763 5.68342 7.09763 5.29289 6.70711L2 3.41421V7H0V0ZM11 0H18V7H16V3.41421L12.7071 6.70711C12.3166 7.09763 11.6834 7.09763 11.2929 6.70711C10.9024 6.31658 10.9024 5.68342 11.2929 5.29289L14.5858 2H11V0ZM0 11H2V14.5858L5.29289 11.2929C5.68342 10.9024 6.31658 10.9024 6.70711 11.2929C7.09763 11.6834 7.09763 12.3166 6.70711 12.7071L3.41421 16H7V18H0V11ZM11.2929 11.2929C11.6834 10.9024 12.3166 10.9024 12.7071 11.2929L16 14.5858V11H18V18H11V16H14.5858L11.2929 12.7071C10.9024 12.3166 10.9024 11.6834 11.2929 11.2929Z" fill="currentColor"/>
</svg>
