<svg width="100%" height="100%" viewBox="0 0 20 18" version="1.1" xmlns="http://www.w3.org/2000/svg" xmlns:xlink="http://www.w3.org/1999/xlink" xml:space="preserve" xmlns:serif="http://www.serif.com/" style="fill-rule:evenodd;clip-rule:evenodd;stroke-linejoin:round;stroke-miterlimit:2;">
    <path d="M10.037,2.91C11.629,-0.523 16.179,-1.027 18.445,1.978L18.764,2.401C20.625,4.869 20.357,8.387 18.144,10.525L10.955,17.472C10.844,17.58 10.735,17.685 10.634,17.764C10.523,17.853 10.382,17.943 10.199,17.98C10.068,18.007 9.933,18.007 9.801,17.98C9.618,17.943 9.477,17.853 9.366,17.764C9.265,17.685 9.156,17.58 9.045,17.472L1.856,10.525C-0.357,8.387 -0.625,4.869 1.236,2.401L1.555,1.978C3.821,-1.027 8.371,-0.523 9.963,2.91C9.97,2.923 9.975,2.926 9.977,2.928C9.982,2.93 9.989,2.933 10,2.933C10.011,2.933 10.018,2.93 10.023,2.928C10.025,2.926 10.03,2.923 10.037,2.91Z" fill="currentColor"/>
</svg>
