<svg width="100%" height="100%" viewBox="0 0 19 19" fill="none" xmlns="http://www.w3.org/2000/svg">
<path d="M10.4142 13.2938L7.6594 16.0487C7.6594 16.0487 7.6594 16.0487 7.65933 16.0487C7.65933 16.0487 7.65933 16.0488 7.65927 16.0488C6.52008 17.1881 4.66637 17.1881 3.52705 16.0488C2.97512 15.4969 2.67123 14.7631 2.67123 13.9826C2.67123 13.2023 2.97512 12.4686 3.52686 11.9166C3.52692 11.9166 3.52699 11.9165 3.52705 11.9165L6.28184 9.1616C6.66215 8.78122 6.66215 8.16449 6.28177 7.78417C5.90146 7.40386 5.28473 7.40386 4.90435 7.78417L2.14956 10.539C2.14936 10.5392 2.14917 10.5395 2.14897 10.5397C1.22958 11.4594 0.723236 12.6821 0.723236 13.9826C0.723236 15.2834 1.22978 16.5064 2.14962 17.4262C3.09908 18.3756 4.34612 18.8503 5.59322 18.8503C6.84033 18.8503 8.08744 18.3756 9.03676 17.4262C9.03683 17.4262 9.03683 17.4261 9.03683 17.4261L11.7916 14.6712C12.1719 14.2909 12.1719 13.6742 11.7915 13.2938C11.4113 12.9135 10.7946 12.9135 10.4142 13.2938Z" fill="currentColor"/>
<path d="M18.7278 5.718C18.7278 4.41719 18.2212 3.19424 17.3014 2.2744C15.4025 0.375624 12.313 0.375689 10.4143 2.2744C10.4142 2.27453 10.4141 2.27459 10.414 2.27472L7.65927 5.02938C7.27889 5.4097 7.27889 6.0265 7.65927 6.40681C7.84952 6.59706 8.09874 6.69213 8.34801 6.69213C8.59723 6.69213 8.84657 6.597 9.0367 6.40681L11.7914 3.65215C11.7915 3.65202 11.7916 3.65196 11.7917 3.65183C12.9309 2.51264 14.7846 2.51257 15.924 3.65183C16.4758 4.20376 16.7798 4.93757 16.7798 5.718C16.7798 6.49837 16.476 7.23205 15.9242 7.78398C15.9241 7.78404 15.924 7.78411 15.924 7.78417L13.1692 10.539C12.7889 10.9193 12.7889 11.5361 13.1692 11.9165C13.3594 12.1066 13.6087 12.2018 13.8579 12.2018C14.1072 12.2018 14.3565 12.1066 14.5467 11.9165L17.3015 9.1616C17.3016 9.16141 17.3018 9.16115 17.302 9.16095C18.2214 8.24124 18.7278 7.01848 18.7278 5.718Z" fill="currentColor"/>
<path d="M6.28197 13.2938C6.47216 13.484 6.72144 13.5791 6.97065 13.5791C7.21993 13.5791 7.46921 13.484 7.6594 13.2938L13.1691 7.78411C13.5495 7.40379 13.5495 6.78706 13.1691 6.40668C12.7888 6.02637 12.1721 6.02637 11.7917 6.40668L6.28197 11.9163C5.90159 12.2968 5.90159 12.9135 6.28197 13.2938Z" fill="currentColor"/>
</svg>
