<svg width="100%" height="100%" viewBox="0 0 18 16" fill="none" xmlns="http://www.w3.org/2000/svg">
<path fill-rule="evenodd" clip-rule="evenodd" d="M2.94561 7.09714e-06C2.96372 1.06734e-05 2.98186 1.42497e-05 3.00001 1.42497e-05H15C15.0182 1.42497e-05 15.0363 1.06734e-05 15.0544 7.09714e-06C15.4785 -7.62302e-05 15.8906 -0.000157174 16.2305 0.0455431C16.6137 0.0970634 17.051 0.222585 17.4142 0.585801C17.7774 0.949016 17.903 1.38629 17.9545 1.76949C18.0002 2.10941 18.0001 2.52155 18 2.94562C18 2.96373 18 2.98187 18 3.00001V4.00001C18 4.01816 18 4.03629 18 4.0544C18.0001 4.47848 18.0002 4.89061 17.9545 5.23053C17.903 5.61374 17.7774 6.05101 17.4142 6.41423C17.051 6.77744 16.6137 6.90297 16.2305 6.95449C15.8906 7.00019 15.4785 7.0001 15.0544 7.00002C15.0363 7.00002 15.0182 7.00001 15 7.00001H3.00001C2.98186 7.00001 2.96372 7.00002 2.9456 7.00002C2.52153 7.0001 2.10941 7.00019 1.76949 6.95449C1.38629 6.90297 0.949016 6.77744 0.585801 6.41423C0.222585 6.05101 0.0970634 5.61374 0.0455431 5.23053C-0.000157174 4.89062 -7.62302e-05 4.47849 7.09714e-06 4.05442C1.06734e-05 4.03631 1.42497e-05 4.01817 1.42497e-05 4.00001V3.00001C1.42497e-05 2.98186 1.06734e-05 2.96372 7.09714e-06 2.94561C-7.62302e-05 2.52154 -0.000157174 2.10941 0.0455431 1.76949C0.0970634 1.38629 0.222585 0.949016 0.585801 0.585801C0.949016 0.222585 1.38629 0.0970634 1.76949 0.0455431C2.10941 -0.000157174 2.52154 -7.62302e-05 2.94561 7.09714e-06ZM2.02871 2.02871C2.02838 2.03108 2.02804 2.03351 2.02771 2.03599C2.00214 2.22618 2.00001 2.50034 2.00001 3.00001V4.00001C2.00001 4.49969 2.00214 4.77385 2.02771 4.96404C2.02804 4.96652 2.02838 4.96894 2.02871 4.97132C2.03108 4.97165 2.03351 4.97199 2.03599 4.97232C2.22618 4.99789 2.50034 5.00001 3.00001 5.00001H15C15.4997 5.00001 15.7738 4.99789 15.964 4.97232C15.9665 4.97199 15.9689 4.97165 15.9713 4.97132C15.9717 4.96894 15.972 4.96652 15.9723 4.96404C15.9979 4.77385 16 4.49969 16 4.00001V3.00001C16 2.50034 15.9979 2.22618 15.9723 2.03599C15.972 2.03351 15.9717 2.03108 15.9713 2.02871C15.9689 2.02837 15.9665 2.02804 15.964 2.02771C15.7738 2.00214 15.4997 2.00001 15 2.00001H3.00001C2.50034 2.00001 2.22618 2.00214 2.03599 2.02771C2.03351 2.02804 2.03108 2.02837 2.02871 2.02871ZM2.9456 9.00001C2.96372 9.00001 2.98186 9.00001 3.00001 9.00001H15C15.0182 9.00001 15.0363 9.00001 15.0544 9.00001C15.4785 8.99992 15.8906 8.99984 16.2305 9.04554C16.6137 9.09706 17.051 9.22259 17.4142 9.5858C17.7774 9.94902 17.903 10.3863 17.9545 10.7695C18.0002 11.1094 18.0001 11.5215 18 11.9456C18 11.9637 18 11.9819 18 12V13C18 13.0182 18 13.0363 18 13.0544C18.0001 13.4785 18.0002 13.8906 17.9545 14.2305C17.903 14.6137 17.7774 15.051 17.4142 15.4142C17.051 15.7774 16.6137 15.903 16.2305 15.9545C15.8906 16.0002 15.4785 16.0001 15.0544 16C15.0363 16 15.0182 16 15 16H3.00001C2.98186 16 2.96372 16 2.9456 16C2.52154 16.0001 2.10941 16.0002 1.76949 15.9545C1.38629 15.903 0.949016 15.7774 0.585801 15.4142C0.222585 15.051 0.0970634 14.6137 0.0455431 14.2305C-0.000157174 13.8906 -7.62302e-05 13.4785 7.09714e-06 13.0544C1.06734e-05 13.0363 1.42497e-05 13.0182 1.42497e-05 13V12C1.42497e-05 11.9819 1.06734e-05 11.9637 7.09714e-06 11.9456C-7.62302e-05 11.5215 -0.000157174 11.1094 0.0455431 10.7695C0.0970634 10.3863 0.222585 9.94902 0.585801 9.5858C0.949016 9.22259 1.38629 9.09706 1.76949 9.04554C2.10941 8.99984 2.52154 8.99992 2.9456 9.00001ZM2.02871 11.0287C2.02838 11.0311 2.02804 11.0335 2.02771 11.036C2.00214 11.2262 2.00001 11.5003 2.00001 12V13C2.00001 13.4997 2.00214 13.7738 2.02771 13.964C2.02804 13.9665 2.02837 13.9689 2.02871 13.9713C2.03108 13.9717 2.03351 13.972 2.03599 13.9723C2.22618 13.9979 2.50034 14 3.00001 14H15C15.4997 14 15.7738 13.9979 15.964 13.9723C15.9665 13.972 15.9689 13.9717 15.9713 13.9713C15.9717 13.9689 15.972 13.9665 15.9723 13.964C15.9979 13.7738 16 13.4997 16 13V12C16 11.5003 15.9979 11.2262 15.9723 11.036C15.972 11.0335 15.9717 11.0311 15.9713 11.0287C15.9689 11.0284 15.9665 11.028 15.964 11.0277C15.7738 11.0021 15.4997 11 15 11H3.00001C2.50034 11 2.22618 11.0021 2.03599 11.0277C2.03351 11.028 2.03108 11.0284 2.02871 11.0287Z" fill="currentColor"/>
</svg>
