<svg width="100%" height="100%" viewBox="0 0 24 24" version="1.1" xmlns="http://www.w3.org/2000/svg" xmlns:xlink="http://www.w3.org/1999/xlink" xml:space="preserve" xmlns:serif="http://www.serif.com/" style="fill-rule:evenodd;clip-rule:evenodd;stroke-linejoin:round;stroke-miterlimit:2;">
    <path d="M6.464,16.79C8.075,15.863 10.021,15.374 12,15.374C13.979,15.374 15.925,15.863 17.536,16.79C19.147,17.718 20.372,19.056 20.94,20.644C21.131,21.181 20.852,21.771 20.315,21.963C19.779,22.154 19.189,21.875 18.997,21.338C18.625,20.296 17.778,19.309 16.508,18.578C15.238,17.847 13.653,17.437 12,17.437C10.347,17.437 8.762,17.847 7.492,18.578C6.222,19.309 5.375,20.296 5.003,21.338C4.811,21.875 4.221,22.154 3.685,21.963C3.148,21.771 2.869,21.181 3.06,20.644C3.628,19.056 4.853,17.718 6.464,16.79ZM6.844,8.156C6.844,5.308 9.152,3 12,3C14.848,3 17.156,5.308 17.156,8.156C17.156,11.004 14.848,13.312 12,13.312C9.152,13.312 6.844,11.004 6.844,8.156ZM12,5.062C10.291,5.062 8.906,6.447 8.906,8.156C8.906,9.865 10.291,11.25 12,11.25C13.709,11.25 15.094,9.865 15.094,8.156C15.094,6.447 13.709,5.062 12,5.062Z" fill="currentColor"/>
</svg>
