<svg width="100%" height="100%" viewBox="0 0 20 18" fill="none" xmlns="http://www.w3.org/2000/svg">
<path d="M19.447 3.10501L13.447 0.105014C13.3081 0.0354935 13.1549 -0.000701904 12.9995 -0.000701904C12.8441 -0.000701904 12.6909 0.0354935 12.552 0.105014L7 2.88201L1.447 0.105014C1.2945 0.0288113 1.12506 -0.00714095 0.954757 0.000571966C0.784455 0.00828488 0.618953 0.0594068 0.473969 0.149082C0.328985 0.238758 0.209334 0.36401 0.126379 0.512941C0.0434244 0.661872 -7.93497e-05 0.829538 1.08651e-07 1.00001V14C1.08651e-07 14.379 0.214 14.725 0.553 14.895L6.553 17.895C6.69193 17.9645 6.84515 18.0007 7.0005 18.0007C7.15585 18.0007 7.30907 17.9645 7.448 17.895L13 15.118L18.553 17.894C18.7051 17.9709 18.8744 18.0074 19.0446 17.9999C19.2149 17.9923 19.3803 17.9411 19.525 17.851C19.82 17.668 20 17.347 20 17V4.00001C20 3.62101 19.786 3.27501 19.447 3.10501ZM8 4.61801L12 2.61801V13.382L8 15.382V4.61801ZM2 2.61801L6 4.61801V15.382L2 13.382V2.61801ZM18 15.382L14 13.382V2.61801L18 4.61801V15.382Z" fill="currentColor"/>
</svg>
