<svg width="100%" height="100%" viewBox="0 0 18 22" fill="none" xmlns="http://www.w3.org/2000/svg">
<path d="M15.3631 2.57799C13.662 0.917838 11.377 -0.0079345 9.00005 -1.05845e-05C6.62313 -0.0079345 4.33815 0.917838 2.63705 2.57799C1.80341 3.38578 1.14045 4.35274 0.687473 5.42153C0.2345 6.49031 0.000741004 7.63917 5.47152e-05 8.79999C-0.00828552 11.2557 0.937141 13.6187 2.63705 15.391L9.00005 22L15.3631 15.391C17.063 13.6187 18.0084 11.2557 18.0001 8.79999C17.9994 7.63917 17.7656 6.49031 17.3126 5.42153C16.8597 4.35274 16.1967 3.38578 15.3631 2.57799ZM9.00005 12C7.33905 12 6.00005 10.66 6.00005 8.99899C5.99953 8.60492 6.07677 8.21463 6.22736 7.85047C6.37795 7.48631 6.59893 7.15545 6.87762 6.87685C7.15631 6.59825 7.48725 6.37738 7.85146 6.22691C8.21567 6.07645 8.60599 5.99933 9.00005 5.99999C10.6611 5.99999 12.0001 7.33999 12.0001 8.99899C12.0007 9.39319 11.9236 9.78364 11.7731 10.148C11.6225 10.5123 11.4016 10.8433 11.1229 11.1221C10.8442 11.4009 10.5132 11.622 10.149 11.7726C9.78468 11.9232 9.39425 12.0005 9.00005 12Z" fill="currentColor"/>
</svg>
