<svg width="100%" height="100%" viewBox="0 0 16 21" fill="none" xmlns="http://www.w3.org/2000/svg">
<path d="M8 0.138062C3.6 0.138062 0 3.73806 0 8.13806C0 13.5381 7 19.6381 7.3 19.9381C7.5 20.0381 7.8 20.1381 8 20.1381C8.2 20.1381 8.5 20.0381 8.7 19.9381C9 19.6381 16 13.5381 16 8.13806C16 3.73806 12.4 0.138062 8 0.138062ZM8 17.8381C5.9 15.8381 2 11.5381 2 8.13806C2 4.83806 4.7 2.13806 8 2.13806C11.3 2.13806 14 4.83806 14 8.13806C14 11.4381 10.1 15.8381 8 17.8381ZM8 4.13806C5.8 4.13806 4 5.93806 4 8.13806C4 10.3381 5.8 12.1381 8 12.1381C10.2 12.1381 12 10.3381 12 8.13806C12 5.93806 10.2 4.13806 8 4.13806ZM8 10.1381C6.9 10.1381 6 9.23806 6 8.13806C6 7.03806 6.9 6.13806 8 6.13806C9.1 6.13806 10 7.03806 10 8.13806C10 9.23806 9.1 10.1381 8 10.1381Z" fill="currentColor"/>
</svg>
