<svg width="100%" height="100%" viewBox="0 0 24 24" version="1.1" xmlns="http://www.w3.org/2000/svg" xmlns:xlink="http://www.w3.org/1999/xlink" xml:space="preserve" xmlns:serif="http://www.serif.com/" style="fill-rule:evenodd;clip-rule:evenodd;stroke-linejoin:round;stroke-miterlimit:2;">
    <path d="M8.919,5.192C8.77,5.13 8.589,5.112 7.64,5.112L7.278,5.112C6.253,5.112 5.59,5.114 5.102,5.179C4.644,5.241 4.5,5.34 4.421,5.421C4.34,5.501 4.24,5.645 4.179,6.103C4.114,6.59 4.111,7.253 4.111,8.278L4.111,10.389L18.884,10.389C18.878,9.924 18.861,9.565 18.821,9.269C18.76,8.811 18.66,8.668 18.579,8.587C18.5,8.507 18.356,8.408 17.898,8.346C17.41,8.28 16.747,8.278 15.722,8.278L14.158,8.278C13.442,8.279 12.805,8.28 12.218,8.037C11.631,7.794 11.182,7.344 10.676,6.836L9.879,6.039C9.208,5.368 9.067,5.254 8.919,5.192ZM7.786,3C8.503,2.999 9.139,2.998 9.726,3.241C10.313,3.485 10.763,3.935 11.268,4.442L12.065,5.239C12.736,5.911 12.878,6.025 13.026,6.087C13.175,6.148 13.355,6.167 14.304,6.167L15.792,6.167C16.728,6.167 17.533,6.167 18.179,6.254C18.871,6.347 19.534,6.557 20.073,7.095C20.611,7.632 20.82,8.295 20.914,8.988C21,9.633 21,10.44 21,11.375L21,15.737C21,16.673 21,17.478 20.914,18.124C20.82,18.816 20.611,19.48 20.073,20.017C19.534,20.555 18.871,20.765 18.179,20.858C17.533,20.945 16.728,20.945 15.792,20.945L7.208,20.945C6.272,20.945 5.467,20.945 4.821,20.858C4.129,20.765 3.466,20.555 2.927,20.017C2.39,19.48 2.18,18.816 2.086,18.124C2,17.478 2,16.673 2,15.737L2,8.209C2,7.273 2,6.467 2.086,5.821C2.18,5.129 2.39,4.466 2.927,3.928C3.466,3.39 4.129,3.181 4.821,3.088C5.467,3 6.272,3 7.208,3L7.786,3ZM4.111,12.5L4.111,15.667C4.111,16.692 4.114,17.355 4.179,17.843C4.24,18.301 4.34,18.444 4.421,18.525C4.5,18.605 4.644,18.705 5.102,18.766C5.59,18.832 6.253,18.834 7.278,18.834L15.722,18.834C16.747,18.834 17.41,18.832 17.898,18.766C18.356,18.705 18.5,18.605 18.579,18.525C18.66,18.444 18.76,18.301 18.821,17.843C18.886,17.355 18.889,16.692 18.889,15.667L18.889,12.5L4.111,12.5Z" fill="currentColor"/>
</svg>
