<svg width="100%" height="100%" viewBox="0 0 33 20" fill="none" xmlns="http://www.w3.org/2000/svg">
<path fill-rule="evenodd" clip-rule="evenodd" d="M15.4563 1.00204H16.4828V5.59259C16.1042 5.75148 15.7619 6.00759 15.4563 6.36056V1.00204ZM15.1871 9.46815C15.064 8.37352 15.6066 7.60093 16.0995 7.1463C16.5923 6.69167 17.5598 6.21056 18.1893 6.24593V0.022037H17.911V0.0133333H17.3636C17.3636 0.00888889 17.3589 0.00888889 17.3542 0.00444444C17.35 0 17.3453 0 17.3362 0H14.6032C14.5985 0 14.5938 0 14.5896 0.00444444C14.5849 0.00888889 14.5849 0.00888889 14.5849 0.0133333H14.1969V0.0175926H13.7498V9.68444H15.1871V9.46815ZM31.4392 11.1852H32.9953V10.3376H31.882C30.9513 10.3641 30.5589 10.8056 30.7045 11.6663C30.8282 11.4367 31.0742 11.2778 31.4392 11.1852ZM28.031 17.0602H27.5793V17.0537H25.3253V17.6185H25.9139C26.0488 18.9324 25.9036 19.5407 25.4805 19.4394C25.2613 19.5189 25.0972 19.3422 24.983 18.9141C24.8648 18.4859 24.8236 17.9783 24.851 17.3957V15.0694C25.6172 14.862 25.987 15.1357 25.9686 15.8861L27.5704 15.3211C27.2917 14.5883 26.7579 14.1602 25.9686 14.0411C25.6493 13.9793 25.2796 14.0852 24.851 14.3589V13.0435C24.8142 12.5491 24.8463 12.068 24.9511 11.6089C25.0289 11.2602 25.1839 11.0439 25.4122 10.9513L25.4163 10.9248C25.4163 10.9291 25.4211 10.9291 25.4211 10.9335V10.938C26.0921 10.8674 26.1879 11.3837 25.7088 12.4785H27.8438C27.8486 11.6309 27.6388 11.0439 27.2143 10.7128C26.7217 10.3331 26.06 10.192 25.2339 10.2846C24.4267 10.2141 23.8472 10.4878 23.4958 11.0969C23.1898 11.525 23.0715 12.2004 23.1399 13.1319V17.6826H23.1535C23.2539 19.1878 23.9203 19.9559 25.1476 19.9824H25.1886C26.1741 20.0133 26.8952 19.7661 27.3557 19.232C27.8397 18.7641 28.0674 18.0402 28.031 17.0602Z" fill="currentColor"/>
<path fill-rule="evenodd" clip-rule="evenodd" d="M31.2889 11.6178C30.9696 12.2357 30.6409 12.6639 30.2938 12.9067V10.3111H30.2802V10.2869H28.0262V10.8519H28.5874V19.4283H28.0262V19.9933H30.2802V19.978H30.2985V14.0719C30.6456 13.9617 30.9785 13.7454 31.2936 13.4143V19.978H33V11.6178H31.2889ZM18.8281 12.1694H17.7101V19.4328H17.1401V19.9978H19.394V19.978H19.4167V13.7189C19.7405 13.6172 20.0557 13.4143 20.3474 13.123V19.978H20.5483C20.5483 19.9824 20.5483 19.9911 20.5527 19.9956C20.5574 20 20.5621 20 20.571 20H21.2009C21.2052 20 21.2146 20 21.2188 19.9956C21.2235 19.9911 21.2235 19.9867 21.2235 19.978H22.054V10.3331H21.0685C20.5574 11.4676 19.7953 11.8957 18.8281 12.1694ZM4.49235 14.2383L4.49707 10.2759H0.52256V10.2846H0.00235714V19.4328H0V19.9978H2.25452V19.4328H1.70458V11.2646H2.78578V14.2383H2.78542V14.8033H5.03921V14.2383H4.49235ZM7.81139 9.73518V9.17019H7.26163V0.264815H7.27106V0.0661111H5.56449V1.87148C5.32732 2.34833 4.97611 2.67481 4.50124 2.86037V0.022037H2.79049V0.0485185H2.76747C3.00046 1.30204 2.60337 2.22907 1.57221 2.82944C0.983654 3.16926 0.458736 3.23556 0.00235714 3.02352V9.17019H0V9.73518H2.25452V9.17019H1.70458V3.99037C2.1285 3.80926 2.48932 3.57537 2.78578 3.28407V9.69315H2.79249V9.73518H5.04682V9.17019H4.49235V3.92407C4.89832 3.84019 5.25425 3.69463 5.55506 3.49148V9.69315H5.55742V9.73518H7.81139ZM13.1953 9.73518V9.17019H12.6455V0.022037H10.9439V2.58667C10.6929 3.82259 10.36 4.78481 9.95349 5.47333V0.022037H8.2471V9.17019H8.24529V9.73518H10.4991V9.17019H9.94932V7.07574C10.3185 6.77111 10.6472 6.34741 10.939 5.80444V9.68889H10.9415V9.73518H13.1953ZM16.4121 16.3959H14.1581V16.9609H14.7066C14.7272 17.5659 14.7075 18.1146 14.6486 18.6052C14.5896 19.0554 14.3704 19.3511 13.9964 19.4924C13.6268 19.457 13.4121 19.1791 13.3576 18.667C13.3028 18.1506 13.2754 17.4707 13.2845 16.6276V13.0391C13.4169 11.7987 13.6493 11.1057 13.9916 10.96C14.6161 10.7765 14.8536 11.5781 14.706 13.3635H14.0808V13.933H16.3348V13.8161L16.3782 13.8159C16.4465 12.9463 16.4371 12.2798 16.3508 11.8119C16.1773 10.8231 15.5341 10.32 14.4297 10.3111C14.332 10.2915 14.2328 10.2812 14.1332 10.2802H14.0968C12.4814 10.267 11.6463 11.1719 11.5917 12.9906V17.793C11.5826 18.5346 11.7699 19.0774 12.1621 19.4261C12.5177 19.8278 13.0698 20.0176 13.8139 19.9911H13.8181C14.8631 19.9911 15.593 19.6072 16.0132 18.848C16.3437 18.3317 16.4777 17.5835 16.4121 16.613V16.3959ZM8.89314 14.3898C8.58982 14.2036 8.26278 14.061 7.92127 13.9661V10.3111H7.82499V10.2957H5.5712V10.8607H6.21379L6.21016 13.8248H6.20545L6.21016 13.8733V14.8046H7.07669C7.79779 14.8796 8.40031 15.1667 8.88842 15.6654V17.7841C8.85633 18.9274 8.69224 19.488 8.39088 19.4704C8.09008 19.4526 7.91656 19.1657 7.87558 18.6096C7.8297 18.0533 7.84348 17.5148 7.91655 16.9941L7.82499 16.9917V16.9609H6.63681L6.21016 16.95V16.9609H5.5712V17.5259H6.21488C6.24588 18.1785 6.3719 18.6807 6.59347 19.0333C6.97207 19.6998 7.55627 20.0044 8.34991 19.9559C9.57725 19.8765 10.3072 19.307 10.5401 18.252L10.5948 10.3069H8.89314V14.3898ZM23.8566 5.29333C23.8566 5.07148 23.7765 4.87944 23.6128 4.72481C23.4496 4.57 23.2548 4.48926 23.022 4.48926C22.7923 4.48926 22.5943 4.56667 22.4308 4.72481C22.267 4.88296 22.1874 5.07148 22.1874 5.29333C22.1874 5.51556 22.2708 5.70722 22.4308 5.86537C22.5943 6.02352 22.7923 6.10074 23.022 6.10074C23.2512 6.10074 23.4496 6.02352 23.6128 5.86537C23.7765 5.70722 23.8566 5.51556 23.8566 5.29333ZM22.7537 2.72704C22.9296 2.72704 23.0813 2.66778 23.2068 2.54648C23.3317 2.42556 23.393 2.27852 23.393 2.10852C23.393 1.93852 23.3317 1.79167 23.2068 1.67315C23.0847 1.55469 22.922 1.48991 22.7537 1.49278C22.5778 1.49278 22.4264 1.55204 22.3009 1.67315C22.1756 1.79426 22.1147 1.93852 22.1147 2.10852C22.1147 2.27852 22.1784 2.42556 22.3009 2.54648C22.4264 2.66778 22.5778 2.72704 22.7537 2.72704ZM26.6156 4.94852C26.6156 4.77852 26.5541 4.63167 26.4292 4.51296C26.3043 4.39444 26.1549 4.33259 25.9766 4.33259C25.8007 4.33259 25.6488 4.39185 25.5235 4.51296C25.3984 4.63407 25.3371 4.77852 25.3371 4.94852C25.3371 5.11852 25.4013 5.26537 25.5235 5.38648C25.6488 5.50778 25.8007 5.56685 25.9766 5.56685C26.152 5.56685 26.3043 5.50778 26.4292 5.38648C26.5541 5.26537 26.6156 5.11852 26.6156 4.94852ZM24.5779 7.58481C24.3853 7.47387 24.1578 7.44442 23.9442 7.50278C23.7208 7.56074 23.5511 7.68352 23.4365 7.87574C23.3219 8.06815 23.2949 8.27463 23.3515 8.48889C23.4115 8.70481 23.5411 8.87056 23.7401 8.98167C23.9391 9.09278 24.1507 9.12148 24.3738 9.0637C24.5973 9.00574 24.7658 8.87852 24.8802 8.68611C24.9948 8.49389 25.0251 8.28907 24.9632 8.07593C24.9067 7.86167 24.7765 7.69593 24.5779 7.58481ZM19.3817 3.1313C19.2894 3.3363 19.2865 3.54 19.371 3.74667C19.455 3.95315 19.602 4.10315 19.8141 4.19204C20.0263 4.2813 20.2413 4.28593 20.4549 4.20444C20.6682 4.12296 20.8219 3.97741 20.9124 3.77667C21.0043 3.57167 21.009 3.36352 20.9245 3.15704C20.8408 2.95037 20.6903 2.80167 20.4781 2.71278C20.2673 2.62667 20.0557 2.62074 19.8421 2.70241C19.6283 2.7837 19.4738 2.92611 19.3817 3.1313ZM19.2125 6.49944C19.6323 6.63988 20.016 6.87436 20.3356 7.18574C20.4399 7.28648 20.5206 7.37352 20.5866 7.45593C20.5866 7.46056 20.5913 7.46056 20.5913 7.465C20.9322 7.88611 21.1307 8.34852 21.1972 8.87963C21.2094 8.98204 21.215 9.08944 21.2174 9.1987H22.7508C22.749 9.02944 22.7419 8.86278 22.7207 8.70093C22.6259 7.90463 22.3138 7.17667 21.798 6.545C21.6937 6.41204 21.5706 6.27944 21.4192 6.13296C20.7837 5.52093 20.0415 5.13296 19.2125 4.95833V6.49944ZM19.2125 1.46407C19.2635 1.4763 19.313 1.49278 19.369 1.49278C19.5449 1.49278 19.6968 1.43352 19.8218 1.31241C19.947 1.19111 20.0085 1.04426 20.0085 0.874259C20.0098 0.79226 19.9937 0.710948 19.9615 0.635832C19.9293 0.560716 19.8816 0.493552 19.8218 0.438889C19.6968 0.320185 19.5472 0.258333 19.369 0.258333C19.313 0.258333 19.2635 0.274815 19.2125 0.287037V1.46407ZM27.4067 9.1987C27.4128 9.16278 27.4275 9.13 27.4275 9.09148C27.4288 9.00951 27.4128 8.92822 27.3807 8.8531C27.3485 8.77799 27.3009 8.71081 27.2411 8.65611C27.1158 8.53759 26.9668 8.47574 26.788 8.47574C26.6127 8.47574 26.4609 8.535 26.3355 8.65611C26.2105 8.77704 26.1492 8.92148 26.1492 9.09148C26.1492 9.13 26.1637 9.16278 26.1705 9.1987H27.4067Z" fill="currentColor"/>
</svg>
