<svg width="100%" height="100%" viewBox="0 0 40 40" version="1.1" xmlns="http://www.w3.org/2000/svg" xmlns:xlink="http://www.w3.org/1999/xlink" xml:space="preserve" xmlns:serif="http://www.serif.com/" style="fill-rule:evenodd;clip-rule:evenodd;stroke-linejoin:round;stroke-miterlimit:2;">
    <path d="M20,0C31.038,0 40,8.962 40,20C40,31.038 31.038,40 20,40C8.962,40 0,31.038 0,20C0,8.962 8.962,0 20,0ZM15.382,20.548C14.828,20.539 14.283,20.816 13.967,21.327C13.484,22.105 13.715,23.132 14.481,23.621C15.494,24.265 16.593,24.722 17.733,24.986L14.602,28.161C13.961,28.811 13.962,29.863 14.603,30.513C14.924,30.838 15.343,31 15.763,31C16.183,31 16.603,30.837 16.924,30.512L19.999,27.393L23.077,30.512C23.718,31.162 24.756,31.162 25.397,30.512C26.039,29.863 26.039,28.809 25.397,28.161L22.266,24.986C23.406,24.723 24.505,24.266 25.517,23.621C26.285,23.132 26.517,22.104 26.034,21.327C25.55,20.549 24.538,20.314 23.77,20.804C21.477,22.267 18.522,22.266 16.229,20.804C15.965,20.636 15.672,20.553 15.382,20.548ZM20,9C16.912,9 14.399,11.547 14.399,14.678C14.399,17.809 16.912,20.355 20,20.355C23.089,20.355 25.601,17.809 25.601,14.678C25.601,11.547 23.089,9 20,9ZM20,12.327C21.279,12.327 22.318,13.382 22.318,14.678C22.318,15.973 21.279,17.028 20,17.028C18.722,17.028 17.681,15.973 17.681,14.678C17.681,13.382 18.722,12.327 20,12.327Z" fill="currentColor"/>
</svg>
