<svg width="100%" height="100%" viewBox="0 0 32 32" version="1.1" xmlns="http://www.w3.org/2000/svg" xmlns:xlink="http://www.w3.org/1999/xlink" xml:space="preserve" xmlns:serif="http://www.serif.com/" style="fill-rule:evenodd;clip-rule:evenodd;stroke-linejoin:round;stroke-miterlimit:2;">
    <path d="M9.981,11.006C9.981,9.898 10.879,9 11.987,9C13.095,9 13.994,9.898 13.994,11.006L13.994,20.994C13.994,22.102 13.095,23 11.987,23C10.879,23 9.981,22.102 9.981,20.994L9.981,11.006ZM18.006,11.006C18.006,9.898 18.905,9 20.013,9C21.121,9 22.019,9.898 22.019,11.006L22.019,20.994C22.019,22.102 21.121,23 20.013,23C18.905,23 18.006,22.102 18.006,20.994L18.006,11.006Z" fill="currentColor"/>
</svg>
