<svg width="100%" height="100%" viewBox="0 0 512 512" version="1.1" xmlns="http://www.w3.org/2000/svg" xmlns:xlink="http://www.w3.org/1999/xlink" xml:space="preserve" xmlns:serif="http://www.serif.com/" style="fill-rule:evenodd;clip-rule:evenodd;stroke-linejoin:round;stroke-miterlimit:2;">
    <path fill="currentColor" d="M256,400C238,400 224,386 224,368C224,350 237.1,336 256,336C273.1,336 288,350 288,368C288,386 273.1,400 256,400ZM325.1,258L280,286L280,288C280,301 269,312 256,312C243,312 232,301 232,288L232,272C232,264 236,256 244,251L301,217C308,213 312,206 312,198C312,186 301.1,176 289.1,176L238,176C225.1,176 216,186 216,198C216,211 205,222 192,222C179,222 168,211 168,198C168,159 199,128 237.1,128L288.2,128C329,128 360,159 360,198C360,222 347,245 325.1,258Z"/>
    <path fill="currentColor" d="M256,0C397.29,0 512,114.71 512,256C512,397.29 397.29,512 256,512C114.71,512 0,397.29 0,256C0,114.71 114.71,0 256,0ZM256,30C380.733,30 482,131.267 482,256C482,380.733 380.733,482 256,482C131.267,482 30,380.733 30,256C30,131.267 131.267,30 256,30Z"/>
</svg>
