<svg width="100%" height="100%" viewBox="0 0 18 18" fill="none" xmlns="http://www.w3.org/2000/svg">
<path fill-rule="evenodd" clip-rule="evenodd" d="M8.08335 2.66666C5.09181 2.66666 2.66669 5.09179 2.66669 8.08333C2.66669 11.0749 5.09181 13.5 8.08335 13.5C11.0749 13.5 13.5 11.0749 13.5 8.08333C13.5 5.09179 11.0749 2.66666 8.08335 2.66666ZM0.666687 8.08333C0.666687 3.98722 3.98724 0.666664 8.08335 0.666664C12.1795 0.666664 15.5 3.98722 15.5 8.08333C15.5 9.80374 14.9142 11.3873 13.9313 12.6455C14.0623 12.6941 14.1852 12.771 14.2905 12.8762L17.0405 15.6262C17.431 16.0167 17.431 16.6499 17.0405 17.0404C16.6499 17.431 16.0168 17.431 15.6262 17.0404L12.8762 14.2904C12.771 14.1852 12.6941 14.0623 12.6456 13.9312C11.3874 14.9142 9.80376 15.5 8.08335 15.5C3.98724 15.5 0.666687 12.1794 0.666687 8.08333Z" fill="currentColor"/>
</svg>
