<svg width="100%" height="100%" viewBox="0 0 18 18" fill="none" xmlns="http://www.w3.org/2000/svg">
<path fill-rule="evenodd" clip-rule="evenodd" d="M3.6 12.6C1.61177 12.6 0 10.9882 0 8.99997C0 7.01174 1.61177 5.39997 3.6 5.39997C5.58822 5.39997 7.19999 7.01174 7.19999 8.99997C7.19999 10.9882 5.58822 12.6 3.6 12.6Z" fill="currentColor"/>
<path fill-rule="evenodd" clip-rule="evenodd" d="M14.3988 7.19999C12.4106 7.19999 10.7988 5.58822 10.7988 3.6C10.7988 1.61177 12.4106 0 14.3988 0C16.387 0 17.9988 1.61177 17.9988 3.6C17.9988 5.58822 16.387 7.19999 14.3988 7.19999Z" fill="currentColor"/>
<path fill-rule="evenodd" clip-rule="evenodd" d="M14.3988 18C12.4106 18 10.7988 16.3882 10.7988 14.4C10.7988 12.4118 12.4106 10.8 14.3988 10.8C16.387 10.8 17.9988 12.4118 17.9988 14.4C17.9988 16.3882 16.387 18 14.3988 18Z" fill="currentColor"/>
<path fill-rule="evenodd" clip-rule="evenodd" d="M5.6377 11.0249L6.44268 9.41489L12.4911 12.4391L11.6861 14.0491L5.6377 11.0249Z" fill="currentColor"/>
<path fill-rule="evenodd" clip-rule="evenodd" d="M6.25811 8.67708L5.45312 7.06711L11.5977 3.99481L12.4027 5.60478L6.25811 8.67708Z" fill="currentColor"/>
</svg>
