<svg width="100%" height="100%" viewBox="0 0 24 27" fill="none" xmlns="http://www.w3.org/2000/svg">
<path d="M11.304 14.6513L15.546 10.1233C16.131 9.49925 17.082 9.49925 17.667 10.1233C18.252 10.7505 18.252 11.7633 17.667 12.3889L12.3645 18.0449C12.0705 18.3569 11.6865 18.5137 11.304 18.5137C10.92 18.5137 10.536 18.3585 10.242 18.0465L7.062 14.6545C6.477 14.0273 6.477 13.0145 7.062 12.3905C7.647 11.7665 8.5965 11.7665 9.1815 12.3905L11.304 14.6513ZM12 26.4001C5.373 26.4001 0 20.6689 0 13.6001C0 6.53125 5.373 0.800049 12 0.800049C18.627 0.800049 24 6.53125 24 13.6001C24 20.6689 18.627 26.4001 12 26.4001ZM12 23.2001C16.971 23.2001 21 18.9025 21 13.6001C21 8.29765 16.971 4.00005 12 4.00005C7.029 4.00005 3 8.29765 3 13.6001C3 18.9025 7.029 23.2001 12 23.2001Z" fill="#8BBA08"/>
</svg>
