<svg width="100%" height="100%" viewBox="0 0 24 27" fill="none" xmlns="http://www.w3.org/2000/svg">
<path fill-rule="evenodd" clip-rule="evenodd" d="M12 24.3333C17.463 24.3333 22 19.5895 22 13.5999C22 7.61028 17.463 2.86658 12 2.86658C6.53697 2.86658 2 7.61028 2 13.5999C2 19.5895 6.53697 24.3333 12 24.3333ZM24 13.5999C24 20.5706 18.6872 26.3333 12 26.3333C5.31277 26.3333 0 20.5706 0 13.5999C0 6.62926 5.31277 0.866577 12 0.866577C18.6872 0.866577 24 6.62926 24 13.5999Z" fill="#FF0202"/>
<path d="M11 18.9332C11 18.3441 11.4477 17.8666 12 17.8666C12.5523 17.8666 13 18.3441 13 18.9332C13 19.5224 12.5523 19.9999 12 19.9999C11.4477 19.9999 11 19.5224 11 18.9332Z" fill="#FF0202"/>
<path fill-rule="evenodd" clip-rule="evenodd" d="M12 19.4999C12.2462 19.4999 12.5 19.2771 12.5 18.9332C12.5 18.5894 12.2462 18.3666 12 18.3666C11.7538 18.3666 11.5 18.5894 11.5 18.9332C11.5 19.2771 11.7538 19.4999 12 19.4999ZM13.5 18.9332C13.5 19.7676 12.8583 20.4999 12 20.4999C11.1417 20.4999 10.5 19.7676 10.5 18.9332C10.5 18.0989 11.1417 17.3666 12 17.3666C12.8583 17.3666 13.5 18.0989 13.5 18.9332Z" fill="#FF0202"/>
<path fill-rule="evenodd" clip-rule="evenodd" d="M12 15.0999C11.1716 15.0999 10.5 14.4283 10.5 13.5999V7.19991C10.5 6.37149 11.1716 5.69991 12 5.69991C12.8284 5.69991 13.5 6.37149 13.5 7.19991V13.5999C13.5 14.4283 12.8284 15.0999 12 15.0999Z" fill="#FF0202"/>
</svg>
