<svg width="100%" height="100%" viewBox="0 0 24 24" fill="none" xmlns="http://www.w3.org/2000/svg">
<path fill-rule="evenodd" clip-rule="evenodd" d="M21.1538 6.64516C21.9207 6.33202 22.7964 6.69991 23.1095 7.46688C25.6146 13.6026 22.6713 20.6075 16.5357 23.1124C12.9942 24.5585 9.16215 24.1878 6.07779 22.4403C5.35702 22.0319 5.10379 21.1164 5.51218 20.3957C5.92057 19.6749 6.83593 19.4217 7.55671 19.8302C9.87609 21.1443 12.7468 21.4189 15.4017 20.335C20.0034 18.4563 22.2108 13.2027 20.3321 8.60086C20.0189 7.8339 20.3868 6.95829 21.1538 6.64516ZM3.29304 14.2858C3.39199 14.6609 3.51648 15.0345 3.66757 15.4047C3.81868 15.7748 3.99126 16.1287 4.18311 16.466C4.59283 17.1859 4.34127 18.1017 3.62125 18.5115C2.90124 18.9212 1.9854 18.6696 1.57569 17.9496C1.31983 17.4999 1.09043 17.0292 0.89015 16.5385C0.689872 16.048 0.524227 15.5513 0.392269 15.051C0.180964 14.25 0.659029 13.4293 1.46005 13.218C2.26108 13.0067 3.08173 13.4848 3.29304 14.2858ZM3.6886 5.41054C4.40424 5.82789 4.64604 6.74634 4.22871 7.46196C3.83224 8.14179 3.52572 8.87128 3.31764 9.63027C3.09861 10.4292 2.27337 10.8993 1.47442 10.6803C0.675472 10.4612 0.205366 9.636 0.424406 8.83705C0.701431 7.82661 1.10938 6.8557 1.63719 5.95063C2.05453 5.23501 2.97298 4.9932 3.6886 5.41054ZM15.1655 0.427274C16.176 0.704299 17.1468 1.11224 18.0519 1.64007C18.7676 2.0574 19.0094 2.97585 18.5921 3.69147C18.1748 4.4071 17.2563 4.6489 16.5407 4.23157C15.8609 3.83511 15.1313 3.5286 14.3723 3.3205C13.5734 3.10147 13.1033 2.27623 13.3223 1.47729C13.5414 0.67834 14.3666 0.208234 15.1655 0.427274ZM10.7845 1.46292C10.9959 2.26395 10.5178 3.0846 9.71676 3.2959C9.34165 3.39486 8.96805 3.51934 8.59795 3.67044C8.22784 3.82155 7.87387 3.99412 7.5367 4.18599C6.81669 4.5957 5.90085 4.34413 5.49114 3.62412C5.08143 2.9041 5.33299 1.98826 6.05301 1.57855C6.50266 1.3227 6.97344 1.0933 7.46398 0.893018C7.95451 0.69274 8.45133 0.527095 8.95156 0.395137C9.75259 0.183833 10.5732 0.661897 10.7845 1.46292Z" fill="#B8BFD7"/>
</svg>
