<svg width="100%" height="100%" viewBox="0 0 48 48" version="1.1" xmlns="http://www.w3.org/2000/svg" xmlns:xlink="http://www.w3.org/1999/xlink" xml:space="preserve" xmlns:serif="http://www.serif.com/" style="fill-rule:evenodd;clip-rule:evenodd;stroke-linejoin:round;stroke-miterlimit:2;">
    <path fill="currentColor" d="M5.752,21.616C18.32,16.087 34.584,9.346 36.829,8.413C42.718,5.971 44.525,6.439 43.624,11.847C42.977,15.734 41.11,28.603 39.622,36.613C38.739,41.363 36.758,41.926 33.643,39.871C32.145,38.882 24.584,33.882 22.943,32.708C21.445,31.638 19.379,30.351 21.97,27.816C22.892,26.913 28.936,21.142 33.645,16.65C34.262,16.06 33.487,15.091 32.775,15.564C26.428,19.773 17.628,25.615 16.508,26.376C14.816,27.525 13.191,28.052 10.274,27.214C8.07,26.581 5.917,25.826 5.079,25.538C1.852,24.43 2.618,22.995 5.752,21.616Z"/>
</svg>
