<svg width="100%" height="100%" viewBox="0 0 19 19" version="1.1" xmlns="http://www.w3.org/2000/svg" xmlns:xlink="http://www.w3.org/1999/xlink" xml:space="preserve" xmlns:serif="http://www.serif.com/" style="fill-rule:evenodd;clip-rule:evenodd;stroke-linejoin:round;stroke-miterlimit:2;">
    <path d="M9,2.062C7.291,2.062 5.906,3.447 5.906,5.156C5.906,6.865 7.291,8.25 9,8.25C10.709,8.25 12.094,6.865 12.094,5.156C12.094,3.447 10.709,2.062 9,2.062ZM3.844,5.156C3.844,2.308 6.152,0 9,0C11.848,0 14.156,2.308 14.156,5.156C14.156,8.004 11.848,10.312 9,10.312C6.152,10.312 3.844,8.004 3.844,5.156ZM3.464,13.79C5.075,12.863 7.021,12.374 9,12.374C10.979,12.374 12.925,12.863 14.536,13.79C16.147,14.718 17.372,16.056 17.94,17.645C18.131,18.181 17.852,18.771 17.316,18.963C16.779,19.154 16.189,18.875 15.997,18.338C15.625,17.296 14.778,16.309 13.508,15.578C12.238,14.847 10.653,14.437 9,14.437C7.347,14.437 5.762,14.847 4.492,15.578C3.222,16.309 2.375,17.296 2.003,18.338C1.811,18.875 1.221,19.154 0.685,18.963C0.148,18.771 -0.131,18.181 0.06,17.645C0.628,16.056 1.853,14.717 3.464,13.79Z" fill="currentColor"/>
</svg>
