<svg width="100%" height="100%" viewBox="0 0 20 23" fill="none" xmlns="http://www.w3.org/2000/svg">
<path d="M17.7446 3.00812C17.2215 2.52621 15.1044 0.989862 10.3841 0.969268C10.3841 0.969268 4.81952 0.635638 2.1093 3.12345C0.601785 4.63096 0.0704487 6.8428 0.0127843 9.58186C-0.0448801 12.3209 -0.114901 17.453 4.83188 18.8452H4.836L4.83188 20.9706C4.83188 20.9706 4.79893 21.8314 5.36733 22.0044C6.05107 22.2186 6.45472 21.5637 7.10962 20.8594C7.46797 20.4722 7.96223 19.9038 8.33705 19.4713C11.7228 19.7555 14.3218 19.1047 14.6184 19.01C15.3021 18.7876 19.1697 18.2933 19.7958 13.1612C20.4466 7.86428 19.4828 4.51975 17.7446 3.00812ZM18.3171 12.774C17.7858 17.0576 14.6513 17.3295 14.0747 17.5148C13.8275 17.5931 11.5415 18.1615 8.67068 17.9761C8.67068 17.9761 6.52886 20.5587 5.8616 21.2301C5.6433 21.4484 5.4044 21.4278 5.40852 20.9953C5.40852 20.7111 5.425 17.4654 5.425 17.4654C5.42088 17.4654 5.42088 17.4654 5.425 17.4654C1.23197 16.3039 1.47911 11.9337 1.52442 9.64776C1.56972 7.36178 2.00221 5.48768 3.27906 4.22731C5.57328 2.14727 10.2976 2.45619 10.2976 2.45619C14.2888 2.47266 16.2 3.67538 16.6448 4.07903C18.1153 5.33941 18.8649 8.35443 18.3171 12.774ZM12.5919 9.44593C12.6083 9.80016 12.077 9.82487 12.0605 9.47065C12.0152 8.56449 11.591 8.12377 10.7178 8.07434C10.3635 8.05375 10.3965 7.52241 10.7466 7.54301C11.8958 7.60479 12.5342 8.26381 12.5919 9.44593ZM13.428 9.91137C13.4692 8.16496 12.3777 6.79749 10.3059 6.64509C9.95577 6.62038 9.99284 6.08904 10.3429 6.11376C12.7319 6.28675 14.0046 7.93018 13.9593 9.92372C13.9552 10.2779 13.4198 10.2615 13.428 9.91137ZM15.3639 10.4633C15.368 10.8175 14.8325 10.8216 14.8325 10.4674C14.8078 7.11053 12.5713 5.28174 9.85692 5.26115C9.50681 5.25703 9.50681 4.72981 9.85692 4.72981C12.8925 4.7504 15.335 6.84692 15.3639 10.4633ZM14.8984 14.5039V14.5122C14.4536 15.2948 13.6216 16.1597 12.7649 15.8838L12.7566 15.8714C11.8875 15.6284 9.84044 14.5739 8.54711 13.5442C7.87985 13.017 7.27026 12.3951 6.80071 11.7978C6.37646 11.2665 5.9481 10.6363 5.53209 9.87842C4.65477 8.29265 4.46118 7.5842 4.46118 7.5842C4.18521 6.72747 5.04606 5.89545 5.83277 5.45061H5.84101C6.21994 5.25291 6.58241 5.31881 6.82542 5.61125C6.82542 5.61125 7.33616 6.22085 7.55446 6.52153C7.76041 6.80161 8.03637 7.25057 8.18053 7.50182C8.43178 7.95078 8.27527 8.40798 8.02813 8.59744L7.53387 8.99286C7.28262 9.19468 7.31557 9.5695 7.31557 9.5695C7.31557 9.5695 8.04873 12.3415 10.7878 13.0417C10.7878 13.0417 11.1626 13.0747 11.3644 12.8234L11.7598 12.3292C11.9493 12.082 12.4065 11.9255 12.8555 12.1768C13.4609 12.5186 14.2312 13.05 14.7419 13.5319C15.0302 13.7666 15.0961 14.125 14.8984 14.5039Z" fill="currentColor"/>
</svg>
