<svg width="100%" height="100%" viewBox="0 0 20 15" version="1.1" xmlns="http://www.w3.org/2000/svg" xmlns:xlink="http://www.w3.org/1999/xlink" xml:space="preserve" xmlns:serif="http://www.serif.com/" style="fill-rule:evenodd;clip-rule:evenodd;stroke-linejoin:round;stroke-miterlimit:2;">
    <path d="M3,2C2.522,2 2,2.445 2,3.167L2,11.833C2,12.555 2.522,13 3,13L11,13C11.478,13 12,12.555 12,11.833L12,3.167C12,2.445 11.478,2 11,2L3,2ZM13.982,2.818C13.82,1.292 12.609,0 11,0L3,0C1.269,0 0,1.495 0,3.167L0,11.833C0,13.505 1.269,15 3,15L11,15C12.731,15 14,13.505 14,11.833L14,10.192L17.096,11.781C17.403,11.939 17.746,12.014 18.091,11.998C18.437,11.982 18.771,11.876 19.061,11.691C19.352,11.507 19.589,11.251 19.752,10.951C19.915,10.651 20,10.314 20,9.974L20,3.027C20,2.686 19.915,2.349 19.752,2.049C19.589,1.749 19.352,1.493 19.061,1.309C18.771,1.124 18.437,1.018 18.091,1.002C17.746,0.986 17.403,1.061 17.096,1.219L13.982,2.818ZM14,5.057L14,7.943L17.995,9.995C17.998,9.989 18,9.982 18,9.973L18,3.027C18,3.018 17.998,3.011 17.995,3.005L14,5.057Z" fill="currentColor"/>
</svg>
