<svg width="100%" height="100%" viewBox="0 0 28 16" fill="none" xmlns="http://www.w3.org/2000/svg">
<path fill-rule="evenodd" clip-rule="evenodd" d="M15.4745 15.2043C15.4745 15.2043 15.9558 15.1518 16.2023 14.8919C16.4279 14.6537 16.4201 14.2044 16.4201 14.2044C16.4201 14.2044 16.3901 12.106 17.3826 11.7962C18.3608 11.4915 19.6168 13.8254 20.9498 14.7229C21.9567 15.4014 22.721 15.2529 22.721 15.2529L26.2829 15.2043C26.2829 15.2043 28.1454 15.0916 27.2625 13.6539C27.1894 13.5361 26.7473 12.59 24.6148 10.6465C22.3806 8.61218 22.6806 8.94121 25.37 5.42176C27.0081 3.2786 27.6629 1.97016 27.4581 1.41069C27.2638 0.875538 26.0586 1.01765 26.0586 1.01765L22.0493 1.04197C22.0493 1.04197 21.7519 1.00228 21.5315 1.13159C21.3163 1.25834 21.1767 1.55408 21.1767 1.55408C21.1767 1.55408 20.5429 3.21202 19.6964 4.62287C17.9109 7.59821 17.1974 7.75568 16.9053 7.57132C16.2257 7.13987 16.3953 5.84041 16.3953 4.91733C16.3953 2.0329 16.8414 0.830729 15.528 0.519625C15.0923 0.415923 14.7715 0.348069 13.6563 0.336547C12.2256 0.322464 11.0152 0.341668 10.3291 0.670696C9.87265 0.889621 9.5205 1.37868 9.7357 1.40685C10.0005 1.44142 10.6004 1.5656 10.9187 1.99065C11.3295 2.53988 11.3152 3.7715 11.3152 3.7715C11.3152 3.7715 11.5512 7.16676 10.7635 7.58797C10.2235 7.87731 9.48268 7.2871 7.89016 4.58703C7.075 3.20434 6.45938 1.6757 6.45938 1.6757C6.45938 1.6757 6.34069 1.3902 6.1281 1.23657C5.87116 1.05093 5.51248 0.993323 5.51248 0.993323L1.70272 1.01765C1.70272 1.01765 1.13014 1.03301 0.920158 1.27754C0.733648 1.49391 0.905811 1.94328 0.905811 1.94328C0.905811 1.94328 3.88867 8.79398 7.26672 12.2469C10.3644 15.4117 13.8807 15.2043 13.8807 15.2043H15.4745Z" fill="currentColor"/>
</svg>
