<svg width="100%" height="100%" viewBox="0 0 16 32" fill="none" xmlns="http://www.w3.org/2000/svg">
<path d="M14.5708 0H10.1058C5.64076 0 1.09761 3.42838 1.09761 10.9937C1.00426 12.7472 1.38653 14.493 2.20213 16.0379C3.01772 17.5829 4.23486 18.8667 5.71889 19.7475L0.19345 29.8612C0.0667995 30.081 0 30.3316 0 30.5868C0 30.8421 0.0667995 31.0927 0.19345 31.3125C0.30802 31.5138 0.470418 31.6822 0.665565 31.8021C0.860713 31.922 1.08228 31.9894 1.3097 31.9982H4.08917C4.37118 32.0122 4.65064 31.9377 4.89007 31.7845C5.12949 31.6313 5.31743 31.4068 5.42867 31.1411L10.5523 20.856H10.9318V30.7068C10.9331 30.8829 10.9692 31.0568 11.0379 31.2182C11.1067 31.3796 11.2067 31.525 11.3319 31.6457C11.4571 31.7664 11.6049 31.8598 11.7663 31.9204C11.9278 31.981 12.0996 32.0075 12.2713 31.9982H14.7047C15.0326 32.0107 15.3522 31.8906 15.5945 31.664C15.8367 31.4374 15.9822 31.1223 15.9996 30.7868V1.39421C16.004 1.2156 15.9741 1.03785 15.9114 0.871113C15.8487 0.704371 15.7546 0.551907 15.6343 0.422431C15.5141 0.292956 15.3701 0.189007 15.2106 0.116524C15.0511 0.0440414 14.8792 0.00444586 14.7047 0H14.5708ZM11.0211 16.3191H10.3625C7.79512 16.3191 6.27702 14.1821 6.27702 10.6051C6.27702 6.14822 8.20814 4.55974 10.0053 4.55974H11.0546L11.0211 16.3191Z" fill="currentColor"/>
</svg>
