<svg width="42" height="34" viewBox="0 0 42 34" fill="none" xmlns="http://www.w3.org/2000/svg">
<path d="M3.69031 5.10825C6.61323 1.9395 11.0361 0.333252 16.8341 0.333252H18.9174V6.20617L17.2424 6.54159C14.3882 7.11242 12.4028 8.23533 11.3403 9.88325C10.7859 10.771 10.4715 11.7875 10.4278 12.8333H16.8341C17.3866 12.8333 17.9165 13.0527 18.3072 13.4434C18.6979 13.8341 18.9174 14.3641 18.9174 14.9166V29.4999C18.9174 31.7978 17.0486 33.6666 14.7507 33.6666H2.25073C1.6982 33.6666 1.16829 33.4471 0.777591 33.0564C0.38689 32.6657 0.167397 32.1358 0.167397 31.5833V21.1666L0.173647 15.0853C0.154897 14.8541 -0.240937 9.37492 3.69031 5.10825ZM37.6674 33.6666H25.1674C24.6149 33.6666 24.085 33.4471 23.6943 33.0564C23.3036 32.6657 23.0841 32.1358 23.0841 31.5833V21.1666L23.0903 15.0853C23.0716 14.8541 22.6757 9.37492 26.607 5.10825C29.5299 1.9395 33.9528 0.333252 39.7507 0.333252H41.8341V6.20617L40.1591 6.54159C37.3049 7.11242 35.3195 8.23533 34.257 9.88325C33.7026 10.771 33.3882 11.7875 33.3445 12.8333H39.7507C40.3033 12.8333 40.8332 13.0527 41.2239 13.4434C41.6146 13.8341 41.8341 14.3641 41.8341 14.9166V29.4999C41.8341 31.7978 39.9653 33.6666 37.6674 33.6666Z" fill="#AEE503"/>
</svg>
