<svg width="162" height="162" viewBox="0 0 162 162" fill="none" xmlns="http://www.w3.org/2000/svg">
<g clip-path="url(#clip0_532_11046)">
<path d="M77.2348 9.3254C69.4196 10.1502 62.4586 13.4179 56.7 18.9381C45.9106 29.3121 42.9047 43.5884 48.1887 59.4826C50.4036 66.0497 53.7891 72.7437 58.4086 79.4694L60.7184 82.8639L40.7215 82.9591C21.1993 83.0543 20.693 83.0543 19.6172 83.7205C19.0161 84.0695 18.225 84.7992 17.8454 85.3385C17.1493 86.4172 -0.031597 146.251 4.36484e-05 147.615C4.36484e-05 148.757 1.26567 151.104 2.24653 151.834C2.6895 152.151 3.60707 152.532 4.30317 152.691C5.94848 153.103 156.052 153.103 157.697 152.691C158.393 152.532 159.311 152.151 159.754 151.834C160.734 151.104 162 148.757 162 147.615C162.032 146.251 144.851 86.4172 144.155 85.3385C143.775 84.7992 142.984 84.0695 142.383 83.7205C141.307 83.0543 140.801 83.0543 121.279 82.9591L101.282 82.8639L103.591 79.4694C119.981 55.4853 120.582 33.6267 105.3 18.9381C100.712 14.5283 95.5231 11.673 89.3848 10.1185C87.5813 9.67436 81.5379 8.91297 80.3989 9.00815C80.1141 9.03986 78.6903 9.19849 77.2348 9.3254ZM88.4356 21.1588C94.8903 23.3161 99.9844 27.7259 102.864 33.5633C106.154 40.2573 106.313 47.554 103.433 56.4053C100.586 65.1297 92.5172 77.5659 83.5629 87.0199L81.0001 89.7165L78.4372 87.0199C71.8559 80.0722 65.1165 70.6498 61.5727 63.48C58.0289 56.2784 56.5735 50.8851 56.5735 44.8257C56.5735 32.7384 64.5469 22.9354 76.4122 20.3974C77.1083 20.2388 79.5446 20.1436 81.7911 20.2071C85.2083 20.3022 86.3157 20.4609 88.4356 21.1588ZM73.6911 97.7747C75.7477 99.8368 77.8993 101.772 78.4688 102.089C79.8293 102.787 82.1708 102.787 83.5313 102.089C84.1008 101.772 86.2524 99.8368 88.309 97.7747L92.0426 93.9994H135.707L136.181 95.7443C137.289 99.5513 138.333 98.2188 126.689 107.958C118.494 114.811 116.121 116.619 115.488 116.588C113.97 116.461 24.9961 100.154 24.8063 99.9637C24.7114 99.8685 24.9329 98.7265 25.3125 97.4257C25.6922 96.1567 26.0719 94.856 26.1352 94.5387C26.2934 94.0311 27.6223 93.9994 48.1571 93.9994H69.9891L73.6911 97.7747ZM30.6282 127.089L30.6915 141.904H21.6422C14.5231 141.904 12.6247 141.809 12.7512 141.492C12.8145 141.301 14.8395 134.258 17.2442 125.851L21.579 110.623L26.0403 111.448L30.5332 112.241L30.6282 127.089ZM144.914 126.359C147.224 134.481 149.186 141.301 149.249 141.492C149.375 141.809 144.661 141.904 126.246 141.904H103.085L121.69 126.359C134.061 116.017 140.358 110.941 140.516 111.194C140.643 111.416 142.604 118.237 144.914 126.359ZM73.1848 120.014C90.429 123.155 104.699 125.788 104.857 125.82C105.047 125.883 100.87 129.531 95.618 133.909L86.0942 141.904H41.4493V128.104C41.4493 120.522 41.5125 114.303 41.6075 114.303C41.7024 114.303 55.909 116.873 73.1848 120.014Z" fill="white"/>
<path d="M77.4563 30.4225C72.5204 31.5963 68.2172 35.8792 66.92 40.86C65.1797 47.6492 68.5653 54.9459 74.8301 57.8646C82.9934 61.7034 92.5805 57.2619 95.0168 48.4423C97.9911 37.7827 88.2458 27.7893 77.4563 30.4225ZM83.12 41.558C84.9868 42.7635 85.145 45.6822 83.468 47.3637C82.677 48.1568 82.2657 48.3154 81 48.3154C79.7344 48.3154 79.3231 48.1568 78.5321 47.3637C77.3297 46.1581 77.0133 44.5401 77.6778 43.1125C78.7219 40.8918 81.0633 40.2255 83.12 41.558Z" fill="white"/>
</g>
<defs>
<clipPath id="clip0_532_11046">
<rect width="162" height="162" fill="white"/>
</clipPath>
</defs>
</svg>
