<svg width="123" height="123" viewBox="0 0 123 123" fill="none" xmlns="http://www.w3.org/2000/svg">
<path d="M8.77962 5.22126C8.27401 5.34167 7.38318 5.89557 6.78127 6.42539C4.80699 8.15934 4.95145 4.42654 5.04775 52.8807L5.11998 95.844L5.62559 97.9392C8.17771 108.222 15.8822 115.592 26.2833 117.663C27.6797 117.952 34.1804 118 64.0835 118C97.887 118 100.295 117.976 101.884 117.567C109.877 115.544 115.391 110.173 117.461 102.419C118.184 99.6732 118.184 95.242 117.437 92.4725C115.15 83.8991 107.927 77.758 99.1631 77.0114L97.4295 76.8669V42.9346C97.4295 12.8554 97.3814 8.9059 97.0684 8.11117C96.5869 6.97929 95.8646 6.23273 94.6607 5.5825L93.6977 5.05268L51.6841 5.00452C24.5257 4.98043 9.35746 5.05268 8.77962 5.22126ZM87.3174 76.9392H58.5459C27.0297 76.9392 28.8354 76.8669 27.2945 78.336C25.7536 79.805 25.248 82.1651 26.0425 84.1158C26.8611 86.0665 28.402 86.9816 31.3153 87.2947C34.5416 87.6319 36.2269 88.4507 38.2734 90.6422C42.0053 94.6399 41.8608 100.757 37.9604 104.658C35.6731 106.97 33.0247 107.933 29.654 107.693C24.309 107.307 19.3733 104.032 17.0379 99.3119C15.2321 95.6514 15.3284 98.4449 15.3284 54.5906V15.2878H87.3174V76.9392ZM101.884 88.2339C106.073 90.305 108.36 94.6399 107.59 99.1433C106.868 103.237 103.665 106.633 99.6446 107.5C98.7538 107.693 90.977 107.765 73.4493 107.765H48.5541L49.1079 106.609C50.6729 103.526 51.3229 100.251 51.1303 96.4943C50.9858 93.3394 50.5765 91.6055 49.3968 89.0287L48.5782 87.2947L100.198 87.4151L101.884 88.2339Z" fill="white"/>
<path d="M30.7375 41.0561L51.2748 41.008L71.788 40.9357L71.8602 35.8061L71.9084 30.7006H30.7375V41.0561Z" fill="white"/>
<path d="M30.7375 61.5263H71.9084L71.8602 56.3968L71.788 51.2912L51.2748 51.219L30.7375 51.1708V61.5263Z" fill="white"/>
</svg>
