<svg width="100%" height="100%" viewBox="0 0 185 112" version="1.1" xmlns="http://www.w3.org/2000/svg" xmlns:xlink="http://www.w3.org/1999/xlink" xml:space="preserve" xmlns:serif="http://www.serif.com/" style="fill-rule:evenodd;clip-rule:evenodd;stroke-linejoin:round;stroke-miterlimit:2;">
    <path d="M167.725,50.995C170.269,50.995 172.332,48.935 172.332,46.394C172.332,43.853 170.269,41.793 167.725,41.793C165.181,41.793 163.118,43.853 163.118,46.394C163.118,48.935 165.181,50.995 167.725,50.995ZM160.431,34.507C162.976,34.507 165.038,32.447 165.038,29.906C165.038,27.366 162.976,25.306 160.431,25.306C157.887,25.306 155.824,27.366 155.824,29.906C155.824,32.447 157.887,34.507 160.431,34.507ZM144.689,23.389C147.234,23.389 149.297,21.329 149.297,18.788C149.297,16.247 147.234,14.187 144.689,14.187C142.145,14.187 140.083,16.247 140.083,18.788C140.083,21.329 142.145,23.389 144.689,23.389Z" style="fill:white;fill-rule:nonzero;"/>
    <path d="M183.988,47.685C185.337,46.337 185.337,44.152 183.988,42.804C182.638,41.456 180.45,41.456 179.1,42.804C177.751,44.152 177.751,46.337 179.1,47.685C180.45,49.032 182.638,49.032 183.988,47.685ZM173.781,20.743C174.22,18.888 173.07,17.029 171.213,16.591C169.355,16.153 167.494,17.302 167.055,19.157C166.617,21.012 167.766,22.871 169.624,23.309C171.481,23.747 173.342,22.598 173.781,20.743ZM150.746,6.171C151.185,4.316 150.034,2.457 148.177,2.019C146.32,1.581 144.458,2.729 144.019,4.584C143.581,6.439 144.731,8.298 146.589,8.736C148.446,9.174 150.308,8.026 150.746,6.171Z" style="fill:white;fill-rule:nonzero;"/>
    <path d="M118.961,57.896L118.961,71.224C116.898,71.833 114.964,72.735 113.202,73.884L113.202,57.896L100.915,57.896L100.915,60.963L103.987,60.963L103.987,108.889L100.915,108.889L100.915,111.956L113.203,111.956L113.203,84.791C114.964,85.939 116.9,86.842 118.962,87.451L118.962,111.991L128.176,111.991L128.176,81.907C127.212,82.091 126.219,82.187 125.201,82.187C122.986,82.187 120.877,81.732 118.962,80.911C117.965,80.483 117.021,79.954 116.141,79.339C117.021,78.725 117.965,78.195 118.962,77.767C120.877,76.945 122.986,76.491 125.201,76.491C126.219,76.491 127.212,76.587 128.176,76.771L128.176,57.896L118.961,57.896ZM66.873,65.163C66.011,62.774 64.342,60.767 62.195,59.473C60.536,58.473 58.59,57.896 56.51,57.896L52.429,57.896C46.347,57.896 41.416,62.82 41.416,68.895L41.416,100.958C41.416,107.033 46.347,111.957 52.429,111.957L56.51,111.957C62.591,111.957 67.522,107.033 67.522,100.958L67.522,68.895C67.523,67.584 67.294,66.328 66.873,65.163ZM90.445,57.827C88.304,65.163 81.522,70.523 73.486,70.523L73.48,108.889L70.41,108.889L70.41,111.956L82.696,111.956L82.626,75.669C84.709,74.834 86.652,73.724 88.408,72.382L88.455,111.956L97.67,111.956L97.67,57.827L90.445,57.827ZM151.433,57.827C149.294,65.163 142.511,70.523 134.475,70.523L134.47,108.889L131.399,108.889L131.399,111.956L143.685,111.956L143.685,100.256C143.685,100.256 146.806,95.603 149.445,93.7L149.445,111.956L158.66,111.956L158.66,57.827L151.433,57.827ZM0,57.892L0,91.649C0.258,91.66 0.515,91.679 0.772,91.702C0.78,91.704 0.788,91.704 0.797,91.705C0.802,91.705 0.808,91.706 0.813,91.706C1.072,91.731 1.328,91.761 1.582,91.797C1.755,91.822 1.928,91.85 2.1,91.881C2.296,91.915 2.49,91.954 2.686,91.995C2.782,92.016 2.88,92.038 2.975,92.06C3.361,92.151 3.741,92.255 4.116,92.372C4.209,92.402 4.303,92.432 4.395,92.463C4.582,92.526 4.766,92.591 4.949,92.659C5.314,92.796 5.676,92.946 6.03,93.108C6.252,93.21 6.469,93.316 6.686,93.427C6.902,93.539 7.115,93.654 7.326,93.774C7.326,93.774 7.326,93.775 7.328,93.775C7.537,93.895 7.746,94.021 7.951,94.149C7.951,94.15 7.953,94.15 7.953,94.15C8.158,94.28 8.36,94.412 8.559,94.552C8.639,94.606 8.719,94.662 8.798,94.719C11.114,96.381 13.012,98.631 14.297,101.265C14.302,101.279 14.309,101.291 14.316,101.305L14.511,101.72C14.545,101.791 14.576,101.864 14.608,101.936C14.704,102.155 14.796,102.379 14.884,102.604C14.896,102.637 14.909,102.669 14.922,102.703L14.922,111.953L23.095,111.953L23.095,102.703C23.107,102.669 23.12,102.636 23.132,102.604C23.22,102.379 23.312,102.155 23.408,101.936L23.618,101.475C23.644,101.418 23.671,101.362 23.7,101.305C23.706,101.291 23.713,101.279 23.72,101.265C25.005,98.631 26.902,96.38 29.218,94.719C29.296,94.662 29.376,94.606 29.457,94.552C29.656,94.414 29.858,94.28 30.064,94.15C30.064,94.15 30.065,94.15 30.065,94.149C30.27,94.021 30.478,93.895 30.689,93.775C30.69,93.775 30.69,93.774 30.69,93.774C30.901,93.654 31.114,93.539 31.33,93.427C31.547,93.317 31.764,93.21 31.986,93.108C32.34,92.945 32.7,92.796 33.067,92.659C33.252,92.591 33.436,92.526 33.621,92.463C33.713,92.432 33.807,92.402 33.9,92.372C34.276,92.255 34.655,92.151 35.042,92.06C35.138,92.038 35.234,92.016 35.33,91.995C35.524,91.953 35.72,91.914 35.916,91.881C36.088,91.85 36.26,91.822 36.434,91.797C36.688,91.761 36.945,91.73 37.203,91.706C37.208,91.706 37.214,91.705 37.219,91.705C37.228,91.704 37.236,91.704 37.245,91.702C37.5,91.679 37.757,91.66 38.016,91.649L38.016,57.892L0,57.892ZM58.41,102.624C58.41,104.292 58.039,105.874 57.372,107.289C56.923,108.245 55.968,108.876 54.909,108.879L54.894,108.879C54.463,108.879 54.04,108.855 53.623,108.807C52.676,108.698 51.845,108.111 51.445,107.248C50.792,105.843 50.427,104.276 50.427,102.624L50.427,67.26C50.427,65.609 50.792,64.042 51.445,62.637C51.847,61.773 52.676,61.187 53.623,61.078C54.04,61.029 54.463,61.006 54.894,61.006L55.296,61.034C56.197,61.167 56.978,61.755 57.372,62.594C57.906,63.728 58.251,64.968 58.365,66.275C58.395,66.598 58.41,66.927 58.41,67.259L58.41,102.624ZM143.685,90.998L143.615,75.67C145.698,74.836 147.641,73.725 149.397,72.384L149.445,87.019C147.299,88.014 145.352,89.365 143.685,90.998ZM14.295,90.426C12.64,88.98 10.792,87.769 8.797,86.839L8.797,62.657L14.295,62.657L14.295,90.426ZM29.215,86.839C27.22,87.769 25.371,88.98 23.717,90.426L23.717,62.657L29.215,62.657L29.215,86.839ZM130.972,33.989C131.152,33.958 131.332,33.93 131.514,33.905C131.78,33.869 132.05,33.838 132.319,33.815C132.324,33.815 132.331,33.813 132.337,33.813C132.345,33.812 132.355,33.812 132.363,33.811C132.631,33.787 132.901,33.769 133.171,33.758L133.171,0L108.985,0L108.985,54.061L116.483,54.061L116.416,53.576L116.347,52.929C116.334,52.792 116.324,52.657 116.316,52.52C116.315,52.515 116.315,52.509 116.315,52.505L116.291,52.059C116.287,51.946 116.284,51.832 116.281,51.719L116.281,51.107L116.302,50.471L116.349,49.775L116.405,49.25L116.492,48.627L116.561,48.213C116.577,48.129 116.593,48.042 116.61,47.957C116.642,47.786 116.678,47.617 116.717,47.449L116.848,46.908L116.973,46.459L117.127,45.958L117.395,45.186L117.581,44.712C117.673,44.488 117.77,44.263 117.87,44.045L118.195,43.373C119.54,40.74 121.528,38.489 123.954,36.827C124.037,36.77 124.12,36.714 124.204,36.66C124.413,36.522 124.624,36.388 124.84,36.259C124.84,36.259 124.842,36.259 124.842,36.257C125.056,36.129 125.275,36.004 125.495,35.884C125.496,35.884 125.496,35.882 125.496,35.882C125.716,35.763 125.941,35.647 126.167,35.536C126.394,35.425 126.622,35.318 126.855,35.216C127.226,35.053 127.604,34.904 127.986,34.768C128.178,34.7 128.372,34.634 128.567,34.571C128.664,34.541 128.761,34.51 128.859,34.481C129.253,34.364 129.65,34.259 130.056,34.169C130.156,34.146 130.258,34.124 130.358,34.103C130.564,34.063 130.767,34.024 130.972,33.989ZM102.651,50.995L102.651,0L93.656,0L93.656,14.464C93.162,18.547 91.022,22.153 88.035,24.67L88.035,0L79.04,0L79.04,54.061L91.326,54.061L91.326,50.995L88.036,50.995L88.036,32.02C90.133,30.922 92.031,29.494 93.658,27.805L93.63,54.061L105.916,54.061L105.916,50.995L102.651,50.995ZM73.088,50.995L73.088,0L66.679,0C66.728,0.504 66.753,1.016 66.753,1.533L66.753,1.54C66.751,4.775 65.772,7.782 64.094,10.281C63.523,11.133 62.87,11.924 62.146,12.646C61.072,13.719 59.845,14.636 58.499,15.364C58.491,15.37 58.481,15.375 58.471,15.38L58.471,0L49.727,0C49.815,0.659 49.86,1.331 49.86,2.013C49.86,3.69 49.591,5.303 49.091,6.815C49.083,6.843 49.073,6.869 49.063,6.897C47.992,10.085 45.899,12.813 43.167,14.708C43.047,14.79 42.926,14.872 42.804,14.952C40.804,16.259 38.482,17.128 35.98,17.418C35.369,17.489 34.749,17.525 34.118,17.525C33.99,17.525 33.861,17.524 33.734,17.52L33.734,54.06L46.02,54.06L46.02,50.993L43.167,50.993L43.167,21.654C45.348,20.677 47.337,19.358 49.063,17.766C49.073,17.758 49.083,17.75 49.091,17.74L49.091,54.06L61.377,54.06L61.377,50.993L58.471,50.993L58.471,22.086C58.481,22.083 58.489,22.08 58.499,22.076C60.346,21.404 62.077,20.492 63.654,19.374C63.802,19.271 63.948,19.164 64.094,19.057L64.094,50.995L64.066,50.995L64.066,54.061L76.352,54.061L76.352,50.995L73.088,50.995ZM151.6,51.378L158.51,51.378C158.51,39.518 150.085,29.622 138.887,27.337L138.887,34.442C146.232,36.579 151.6,43.352 151.6,51.378ZM118.199,32.536L118.199,4.767L123.959,4.767L123.959,28.949C121.868,29.879 119.931,31.089 118.199,32.536Z" style="fill:white;fill-rule:nonzero;"/>
</svg>
