<?xml version="1.0" encoding="UTF-8" standalone="no"?>
<!DOCTYPE svg PUBLIC "-//W3C//DTD SVG 1.1//EN" "http://www.w3.org/Graphics/SVG/1.1/DTD/svg11.dtd">
<svg width="100%" height="100%" viewBox="0 0 16 34" version="1.1" xmlns="http://www.w3.org/2000/svg" xmlns:xlink="http://www.w3.org/1999/xlink" xml:space="preserve" xmlns:serif="http://www.serif.com/" style="fill-rule:evenodd;clip-rule:evenodd;stroke-linejoin:round;stroke-miterlimit:2;">
    <rect x="0" y="0" width="16" height="34" style="fill:white;"/>
    <path d="M16,32L10.681,32L10.681,26.685L16,26.685L16,32ZM0,26.685L5.319,26.685L5.319,32L0,32L0,26.685ZM10.659,32L10.659,26.685L8,26.685L8,29.342L5.341,29.342L5.341,32L10.659,32ZM16,24.006L10.681,24.006L10.681,26.663L16,26.663L16,24.006ZM0,26.663L2.66,26.663L2.66,24.006L0,24.006L0,26.663ZM5.341,24.005L8,24.005L8,21.348L5.341,21.348L5.341,24.005ZM13.34,24.005L16,24.005L16,21.348L13.34,21.348L13.34,24.005ZM2.66,21.326L5.319,21.326L5.319,18.669L2.66,18.669L2.66,21.326ZM8,18.668L8,16.011L5.341,16.011L5.341,21.326L10.659,21.326L10.659,18.668L8,18.668ZM13.34,18.668L16,18.668L16,16.011L13.34,16.011L13.34,18.668ZM13.341,13.331L13.341,10.674L10.681,10.674L10.681,15.989L16,15.989L16,13.331L13.341,13.331ZM5.319,13.332L5.319,8.016L2.66,8.016L2.66,10.674L0,10.674L0,15.989L2.66,15.989L2.66,13.332L5.319,13.332ZM8,13.332L10.659,13.332L10.659,10.674L8,10.674L8,13.332ZM10.659,8.016L5.341,8.016L5.341,10.674L10.659,10.674L10.659,8.016ZM5.319,5.337L0,5.337L0,7.995L5.319,7.995L5.319,5.337ZM10.681,7.995L13.341,7.995L13.341,5.337L10.681,5.337L10.681,7.995ZM8,7.995L10.659,7.995L10.659,5.337L8,5.337L8,7.995ZM16,2.679L10.681,2.679L10.681,5.337L16,5.337L16,2.679ZM0,5.337L2.66,5.337L2.66,2.679L0,2.679L0,5.337ZM13.34,2.658L16,2.658L16,0L13.34,0L13.34,2.658Z" style="fill:rgb(244,242,237);fill-rule:nonzero;"/>
</svg>
